<svg width="112" height="21" viewBox="0 0 112 21" fill="none" xmlns="http://www.w3.org/2000/svg">
<path d="M11.0156 3.70312L10.5371 3.20508C10.3743 3.06185 10.2214 2.94466 10.0781 2.85352C9.94141 2.76237 9.80469 2.69076 9.66797 2.63867C9.53125 2.58008 9.39128 2.54102 9.24805 2.52148C9.11133 2.50195 8.95833 2.49219 8.78906 2.49219C8.73047 2.49219 8.69466 2.4987 8.68164 2.51172C8.50586 2.51172 8.36589 2.51172 8.26172 2.51172C8.16406 2.51172 8.08919 2.51172 8.03711 2.51172C7.98503 2.51172 7.94922 2.51497 7.92969 2.52148C7.91667 2.52148 7.91016 2.52148 7.91016 2.52148H7.1582C7.04753 2.55404 6.93359 2.57357 6.81641 2.58008C6.69922 2.58659 6.58529 2.58984 6.47461 2.58984C6.22721 2.58984 6.03841 2.5931 5.9082 2.59961C5.78451 2.60612 5.68359 2.63216 5.60547 2.67773C5.53385 2.70378 5.49154 2.73958 5.47852 2.78516C5.46549 2.82422 5.45898 2.86003 5.45898 2.89258C5.45898 3.0293 5.43945 3.13021 5.40039 3.19531C5.36784 3.25391 5.29622 3.31901 5.18555 3.39062C5.16602 3.40365 5.14974 3.4362 5.13672 3.48828C5.13021 3.54036 5.12044 3.59896 5.10742 3.66406C5.10091 3.72917 5.0944 3.79427 5.08789 3.85938C5.08789 3.92448 5.08789 3.97656 5.08789 4.01562C5.08789 4.16536 5.11068 4.30859 5.15625 4.44531C5.20182 4.58203 5.22461 4.73503 5.22461 4.9043L5.13672 5.51953C5.13672 5.66927 5.16927 5.81901 5.23438 5.96875C5.30599 6.11849 5.3418 6.28125 5.3418 6.45703L5.18555 7.91211C5.18555 7.9707 5.21159 8.03906 5.26367 8.11719C5.31576 8.1888 5.35807 8.24414 5.39062 8.2832C5.59245 8.30924 5.79753 8.34831 6.00586 8.40039C6.21419 8.44596 6.41927 8.46875 6.62109 8.46875C6.66667 8.46875 6.70573 8.46549 6.73828 8.45898C6.77734 8.44596 6.81315 8.40365 6.8457 8.33203C6.91732 8.32552 7.00195 8.31901 7.09961 8.3125C7.20378 8.30599 7.32096 8.30273 7.45117 8.30273C7.62695 8.30273 7.81576 8.30273 8.01758 8.30273C8.2194 8.29622 8.41797 8.28646 8.61328 8.27344C8.80859 8.25391 8.98763 8.22786 9.15039 8.19531C9.31315 8.15625 9.4401 8.10091 9.53125 8.0293C9.6224 7.9707 9.69076 7.88607 9.73633 7.77539C9.78841 7.66471 9.82747 7.54753 9.85352 7.42383C9.87956 7.29362 9.90234 7.16341 9.92188 7.0332C9.94141 6.90299 9.96745 6.78581 10 6.68164C10.0391 6.57096 10.0911 6.48307 10.1562 6.41797C10.2279 6.34635 10.3288 6.31055 10.459 6.31055C10.498 6.31055 10.5339 6.31706 10.5664 6.33008C10.6055 6.3431 10.6413 6.38542 10.6738 6.45703V6.86719C10.6738 7.17969 10.6413 7.47917 10.5762 7.76562C10.5436 7.99349 10.5111 8.20182 10.4785 8.39062C10.4525 8.57292 10.4395 8.75846 10.4395 8.94727C10.4395 9.11003 10.4622 9.26953 10.5078 9.42578C10.5599 9.57552 10.612 9.72526 10.6641 9.875C10.7227 10.0182 10.7747 10.1647 10.8203 10.3145C10.8724 10.4642 10.8984 10.6172 10.8984 10.7734C10.8984 10.8711 10.8952 10.946 10.8887 10.998C10.8887 11.0436 10.8757 11.0729 10.8496 11.0859C10.8171 11.138 10.7943 11.1771 10.7812 11.2031C10.7682 11.2292 10.7324 11.2422 10.6738 11.2422C10.5762 11.2422 10.5013 11.2064 10.4492 11.1348C10.4036 11.0632 10.3451 10.9915 10.2734 10.9199L10.1367 10.6172C10.0651 10.4609 9.99674 10.3112 9.93164 10.168C9.86654 10.0247 9.78841 9.89128 9.69727 9.76758C9.61263 9.63737 9.51172 9.51693 9.39453 9.40625C9.28385 9.28906 9.14714 9.1849 8.98438 9.09375H8.54492C8.31706 9.09375 8.08268 9.09049 7.8418 9.08398C7.60091 9.07096 7.39258 9.04818 7.2168 9.01562L6.62109 8.9082C6.45182 8.9082 6.26628 8.9375 6.06445 8.99609C5.86914 9.05469 5.68359 9.08724 5.50781 9.09375C5.44922 9.16536 5.38086 9.25651 5.30273 9.36719C5.22461 9.47135 5.18555 9.58529 5.18555 9.70898C5.28971 10.1908 5.3776 10.666 5.44922 11.1348C5.52083 11.597 5.55664 12.0625 5.55664 12.5312C5.55664 12.7526 5.55013 12.9023 5.53711 12.9805C5.5306 13.0521 5.52083 13.1107 5.50781 13.1562C5.5599 13.3125 5.63151 13.4525 5.72266 13.5762C5.82031 13.6934 5.93099 13.8008 6.05469 13.8984C6.17839 13.9896 6.30859 14.0742 6.44531 14.1523C6.58203 14.2305 6.71549 14.3021 6.8457 14.3672C6.85221 14.3672 6.87174 14.3867 6.9043 14.4258C6.94336 14.4648 6.96289 14.4909 6.96289 14.5039C6.98893 14.5169 7.04753 14.5299 7.13867 14.543C7.22982 14.5495 7.28841 14.5527 7.31445 14.5527C7.36654 14.5527 7.40885 14.5527 7.44141 14.5527C7.48047 14.5527 7.52279 14.5462 7.56836 14.5332C7.62044 14.5267 7.66276 14.5234 7.69531 14.5234C7.73438 14.5234 7.77669 14.5234 7.82227 14.5234C7.86784 14.5234 7.91667 14.5234 7.96875 14.5234C8.02083 14.5234 8.06641 14.5267 8.10547 14.5332C8.15104 14.5462 8.19336 14.5527 8.23242 14.5527C8.27799 14.5527 8.32031 14.5527 8.35938 14.5527C8.39193 14.5853 8.43099 14.6178 8.47656 14.6504C8.52865 14.6829 8.57422 14.722 8.61328 14.7676C8.65885 14.8132 8.69466 14.862 8.7207 14.9141C8.75326 14.9661 8.76953 15.0247 8.76953 15.0898C8.76953 15.1615 8.75326 15.2363 8.7207 15.3145C8.68815 15.3861 8.64258 15.4544 8.58398 15.5195C8.5319 15.5911 8.47331 15.6465 8.4082 15.6855C8.3431 15.7311 8.27799 15.7539 8.21289 15.7539H8.19336C8.12174 15.7669 8.04036 15.7734 7.94922 15.7734C7.86458 15.7799 7.78971 15.7832 7.72461 15.7832C7.63346 15.7832 7.54557 15.7799 7.46094 15.7734C7.38281 15.7734 7.27865 15.7669 7.14844 15.7539L6.96289 15.7051C6.85221 15.6465 6.72852 15.5944 6.5918 15.5488C6.45508 15.5033 6.31185 15.4642 6.16211 15.4316C6.01888 15.3991 5.8724 15.3763 5.72266 15.3633C5.57943 15.3438 5.44596 15.334 5.32227 15.334C5.18555 15.334 5.06836 15.3405 4.9707 15.3535C4.87305 15.36 4.74284 15.3861 4.58008 15.4316C4.43034 15.4577 4.27409 15.4772 4.11133 15.4902C3.95508 15.4967 3.80208 15.5 3.65234 15.5C3.48307 15.5 3.32357 15.4967 3.17383 15.4902C3.0306 15.4772 2.87435 15.4577 2.70508 15.4316C2.62695 15.4577 2.55208 15.5 2.48047 15.5586C2.41536 15.6172 2.32747 15.6595 2.2168 15.6855C2.17122 15.6725 2.12891 15.6595 2.08984 15.6465C2.05729 15.64 2.01823 15.6367 1.97266 15.6367C1.9401 15.6497 1.89128 15.6562 1.82617 15.6562H1.45508C1.30534 15.6042 1.18164 15.5521 1.08398 15.5C0.992839 15.4479 0.924479 15.347 0.878906 15.1973C0.878906 14.9889 0.986328 14.8132 1.20117 14.6699C1.35742 14.6569 1.55924 14.6146 1.80664 14.543C2.06055 14.4714 2.30469 14.377 2.53906 14.2598C2.77344 14.1426 2.97526 14.0026 3.14453 13.8398C3.32031 13.6771 3.4082 13.498 3.4082 13.3027C3.4082 12.9577 3.39844 12.6615 3.37891 12.4141C3.36589 12.1602 3.34635 11.916 3.32031 11.6816C3.30078 11.4473 3.28125 11.2031 3.26172 10.9492C3.2487 10.6888 3.24219 10.3763 3.24219 10.0117C3.24219 9.90104 3.25195 9.79362 3.27148 9.68945C3.29753 9.57878 3.32031 9.47135 3.33984 9.36719C3.36589 9.25651 3.38867 9.14909 3.4082 9.04492C3.43424 8.93424 3.44727 8.82357 3.44727 8.71289C3.44727 8.69336 3.44401 8.66732 3.4375 8.63477C3.4375 8.60221 3.4375 8.56966 3.4375 8.53711C3.4375 8.49805 3.43424 8.46549 3.42773 8.43945C3.42773 8.4069 3.42773 8.39062 3.42773 8.39062L3.31055 7.96094V7.20898C3.31055 7.09831 3.29753 6.98763 3.27148 6.87695C3.24544 6.76628 3.21615 6.6556 3.18359 6.54492C3.15755 6.43424 3.13151 6.32682 3.10547 6.22266C3.08594 6.11198 3.07617 6.00456 3.07617 5.90039C3.07617 5.87435 3.07943 5.83203 3.08594 5.77344C3.09896 5.70833 3.11198 5.66276 3.125 5.63672C3.15104 5.50651 3.17057 5.3763 3.18359 5.24609C3.20312 5.10938 3.21289 4.97266 3.21289 4.83594C3.21289 4.70573 3.20638 4.57878 3.19336 4.45508C3.18034 4.32487 3.15755 4.19466 3.125 4.06445C3.125 3.94727 3.0957 3.83333 3.03711 3.72266C2.98503 3.60547 2.91341 3.49479 2.82227 3.39062C2.73763 3.28646 2.64323 3.19531 2.53906 3.11719C2.4349 3.03255 2.33724 2.9707 2.24609 2.93164C2.12891 2.88607 1.9694 2.85677 1.76758 2.84375C1.56576 2.83073 1.36393 2.80794 1.16211 2.77539C0.960286 2.73633 0.784505 2.67448 0.634766 2.58984C0.491536 2.4987 0.419922 2.35221 0.419922 2.15039V2.00391C0.524089 1.94531 0.651042 1.88672 0.800781 1.82812C0.957031 1.76302 1.09049 1.73047 1.20117 1.73047H1.43555C1.52669 1.73047 1.61458 1.74023 1.69922 1.75977C1.79036 1.7793 1.86523 1.82487 1.92383 1.89648C2.03451 1.91602 2.14518 1.93229 2.25586 1.94531C2.36654 1.95833 2.47721 1.96484 2.58789 1.96484C2.68555 1.96484 2.79297 1.95833 2.91016 1.94531C3.02734 1.93229 3.14453 1.91602 3.26172 1.89648C3.29427 1.8444 3.31706 1.8151 3.33008 1.80859C3.34961 1.80208 3.38216 1.79883 3.42773 1.79883C3.56445 1.79883 3.69792 1.82487 3.82812 1.87695C3.95833 1.92904 4.10807 1.95508 4.27734 1.95508H4.49219C4.5638 1.95508 4.63867 1.95508 4.7168 1.95508C4.79492 1.94857 4.87956 1.92904 4.9707 1.89648C5.20508 1.93555 5.46224 1.95508 5.74219 1.95508C6.0026 1.95508 6.26628 1.93555 6.5332 1.89648C6.77409 1.81185 7.02799 1.76953 7.29492 1.76953C7.56836 1.76953 7.85156 1.75651 8.14453 1.73047C8.29427 1.71745 8.43424 1.70768 8.56445 1.70117C8.70117 1.68815 8.83789 1.68164 8.97461 1.68164C9.07227 1.68164 9.17318 1.68815 9.27734 1.70117C9.38151 1.70768 9.48893 1.71745 9.59961 1.73047C9.62565 1.74349 9.6582 1.76628 9.69727 1.79883C9.74284 1.82487 9.78516 1.85417 9.82422 1.88672C9.86979 1.91927 9.91211 1.94857 9.95117 1.97461C9.99023 1.99414 10.0195 2.00391 10.0391 2.00391C10.0977 2.00391 10.1465 1.99414 10.1855 1.97461C10.2311 1.95508 10.2865 1.92904 10.3516 1.89648C10.4557 1.87044 10.5632 1.85417 10.6738 1.84766C10.7845 1.83464 10.8984 1.82812 11.0156 1.82812C11.2174 1.82812 11.4193 1.85091 11.6211 1.89648C11.6341 1.89648 11.6634 1.91927 11.709 1.96484C11.7611 2.00391 11.8132 2.04948 11.8652 2.10156C11.9238 2.14714 11.9759 2.19271 12.0215 2.23828C12.0671 2.27734 12.0931 2.30013 12.0996 2.30664V3.70312C12.2298 4.02214 12.2949 4.3444 12.2949 4.66992C12.2949 4.74805 12.2917 4.82943 12.2852 4.91406C12.2852 4.99219 12.2721 5.06706 12.2461 5.13867C12.2266 5.21029 12.1908 5.26888 12.1387 5.31445C12.0866 5.36003 12.015 5.38281 11.9238 5.38281C11.8848 5.33724 11.8392 5.2819 11.7871 5.2168C11.735 5.15169 11.6797 5.08659 11.6211 5.02148C11.569 4.94987 11.5169 4.88151 11.4648 4.81641C11.4193 4.7513 11.3802 4.69271 11.3477 4.64062C11.3477 4.6276 11.3346 4.5918 11.3086 4.5332C11.2826 4.4681 11.2533 4.40299 11.2207 4.33789C11.1882 4.26628 11.1556 4.20117 11.123 4.14258C11.097 4.07747 11.0775 4.03516 11.0645 4.01562C11.0514 4.0026 11.0384 3.95052 11.0254 3.85938C11.0189 3.76823 11.0156 3.71615 11.0156 3.70312ZM13.252 15.5684C13.2324 15.5684 13.2096 15.5684 13.1836 15.5684C13.1576 15.5684 13.1283 15.5618 13.0957 15.5488H12.8906L12.7734 15.4512V14.9922L12.998 14.6406C13.0566 14.6146 13.125 14.6016 13.2031 14.6016C13.2812 14.5951 13.3236 14.5918 13.3301 14.5918C13.3561 14.5918 13.4147 14.5885 13.5059 14.582C13.6035 14.569 13.6816 14.5495 13.7402 14.5234C13.89 14.556 13.9974 14.5723 14.0625 14.5723C14.1406 14.5137 14.2155 14.4355 14.2871 14.3379C14.3587 14.2402 14.4206 14.1328 14.4727 14.0156C14.5312 13.8984 14.5736 13.7812 14.5996 13.6641C14.6322 13.5469 14.6484 13.4395 14.6484 13.3418V12.2578C14.6484 12.0299 14.6484 11.8086 14.6484 11.5938C14.6549 11.3724 14.668 11.2161 14.6875 11.125C14.668 10.9492 14.6549 10.7767 14.6484 10.6074C14.6419 10.4316 14.6322 10.2559 14.6191 10.0801L14.5508 9.06445C14.5312 8.75846 14.515 8.45247 14.502 8.14648C14.4889 7.84049 14.4824 7.53125 14.4824 7.21875C14.4824 7.1862 14.4857 7.16341 14.4922 7.15039C14.4987 7.13086 14.528 7.10482 14.5801 7.07227C14.554 6.9681 14.5378 6.8737 14.5312 6.78906C14.5312 6.70443 14.5312 6.61328 14.5312 6.51562C14.5312 6.42448 14.5312 6.33333 14.5312 6.24219C14.5378 6.14453 14.554 6.04362 14.5801 5.93945C14.528 5.9069 14.4857 5.85807 14.4531 5.79297C14.4271 5.72786 14.4141 5.63997 14.4141 5.5293C14.4141 5.44466 14.4401 5.3763 14.4922 5.32422C14.5443 5.27214 14.5703 5.19401 14.5703 5.08984C14.5703 4.94661 14.5671 4.79362 14.5605 4.63086C14.554 4.4681 14.528 4.30208 14.4824 4.13281C14.4368 3.90495 14.4141 3.72266 14.4141 3.58594C14.4141 3.44922 14.4076 3.30273 14.3945 3.14648C14.3555 3.08789 14.2871 3.0293 14.1895 2.9707C14.0983 2.91211 13.9974 2.85352 13.8867 2.79492C13.7826 2.72982 13.6816 2.66471 13.584 2.59961C13.4863 2.52799 13.418 2.45312 13.3789 2.375C13.3268 2.27083 13.291 2.20898 13.2715 2.18945C13.2585 2.16341 13.2454 2.13411 13.2324 2.10156C13.2324 2.05599 13.2454 1.99089 13.2715 1.90625C13.2975 1.8151 13.3464 1.76302 13.418 1.75C13.5547 1.71745 13.6947 1.67839 13.8379 1.63281C13.9811 1.58724 14.0885 1.55794 14.1602 1.54492C14.1732 1.54492 14.2057 1.53516 14.2578 1.51562C14.3164 1.48958 14.375 1.46354 14.4336 1.4375C14.4987 1.40495 14.5573 1.37565 14.6094 1.34961C14.668 1.31706 14.7038 1.29102 14.7168 1.27148C14.8405 1.23893 14.9544 1.20312 15.0586 1.16406C15.1693 1.125 15.2767 1.08919 15.3809 1.05664C15.485 1.02409 15.5924 0.994792 15.7031 0.96875C15.8203 0.942708 15.944 0.926432 16.0742 0.919922C16.1393 0.919922 16.1947 0.923177 16.2402 0.929688C16.2858 0.936198 16.3086 0.96224 16.3086 1.00781C16.3346 1.17708 16.3509 1.3431 16.3574 1.50586C16.3704 1.66211 16.377 1.8151 16.377 1.96484C16.377 2.11458 16.3704 2.26758 16.3574 2.42383C16.3509 2.57357 16.3346 2.72005 16.3086 2.86328C16.2565 3 16.224 3.14648 16.2109 3.30273C16.1979 3.45898 16.1914 3.61523 16.1914 3.77148L16.2012 4.2793L16.1719 4.95312C16.1979 5.00521 16.2142 5.05729 16.2207 5.10938C16.2337 5.16146 16.2402 5.22982 16.2402 5.31445C16.2402 5.44466 16.237 5.53906 16.2305 5.59766C16.2305 5.65625 16.2207 5.70182 16.2012 5.73438L16.2695 6.35938C16.2435 6.46354 16.2012 6.57096 16.1426 6.68164C16.084 6.78581 16.0384 6.90299 16.0059 7.0332C16.0059 7.10482 16.0221 7.16992 16.0547 7.22852C16.0872 7.2806 16.11 7.35221 16.123 7.44336C16.1491 7.69727 16.1621 7.94141 16.1621 8.17578C16.1686 8.41016 16.1784 8.6543 16.1914 8.9082C16.1589 9.05794 16.1198 9.19141 16.0742 9.30859C16.0352 9.41927 16.0156 9.5332 16.0156 9.65039V9.80664C16.0221 9.94336 16.0319 10.0703 16.0449 10.1875C16.0579 10.2982 16.071 10.4089 16.084 10.5195C16.1035 10.6302 16.1198 10.7474 16.1328 10.8711C16.1458 10.9883 16.1589 11.125 16.1719 11.2812C16.1719 11.4505 16.1621 11.597 16.1426 11.7207C16.1296 11.8444 16.1165 11.9941 16.1035 12.1699C16.097 12.209 16.0872 12.2643 16.0742 12.3359C16.0677 12.4076 16.0579 12.4824 16.0449 12.5605C16.0384 12.6322 16.0319 12.7005 16.0254 12.7656C16.0189 12.8307 16.0156 12.8763 16.0156 12.9023V12.9121C16.0221 12.9447 16.0352 13.0098 16.0547 13.1074C16.0742 13.2051 16.0938 13.306 16.1133 13.4102C16.1328 13.5143 16.1523 13.612 16.1719 13.7031C16.1914 13.7943 16.2012 13.8529 16.2012 13.8789L16.2695 14.0254H16.2891C16.3086 14.0254 16.3216 14.0352 16.3281 14.0547C16.3346 14.0742 16.3444 14.0872 16.3574 14.0938C16.3835 14.1198 16.3997 14.1491 16.4062 14.1816C16.4128 14.2077 16.4258 14.237 16.4453 14.2695C16.4714 14.2956 16.5072 14.3249 16.5527 14.3574C16.6048 14.3835 16.6862 14.4095 16.7969 14.4355C16.9206 14.5137 17.015 14.5527 17.0801 14.5527C17.0996 14.5527 17.1159 14.5527 17.1289 14.5527C17.1419 14.5527 17.1647 14.5462 17.1973 14.5332C17.2493 14.5462 17.3112 14.556 17.3828 14.5625C17.4544 14.569 17.5293 14.582 17.6074 14.6016C17.6855 14.6146 17.7637 14.6374 17.8418 14.6699C17.9199 14.7025 17.9883 14.748 18.0469 14.8066C18.0794 14.8327 18.099 14.8685 18.1055 14.9141C18.112 14.9531 18.1152 15.0085 18.1152 15.0801V15.4121C18.1152 15.4577 18.1087 15.5 18.0957 15.5391C18.0827 15.5781 18.0566 15.6042 18.0176 15.6172C17.9655 15.6042 17.9102 15.5977 17.8516 15.5977C17.7995 15.5977 17.7474 15.5977 17.6953 15.5977C17.6497 15.5977 17.6009 15.5944 17.5488 15.5879C17.4967 15.5879 17.4316 15.5814 17.3535 15.5684L17.0508 15.5293C17.0378 15.5293 17.0085 15.526 16.9629 15.5195C16.9238 15.5195 16.8783 15.5163 16.8262 15.5098C16.7806 15.5098 16.735 15.5065 16.6895 15.5C16.6504 15.5 16.6243 15.5 16.6113 15.5L16.1328 15.4707C16.1263 15.4707 16.1198 15.4674 16.1133 15.4609C16.1068 15.4609 16.1003 15.4609 16.0938 15.4609C16.0938 15.4544 16.0905 15.4512 16.084 15.4512C15.9408 15.4577 15.8105 15.4674 15.6934 15.4805C15.5827 15.4935 15.4753 15.5065 15.3711 15.5195C15.2734 15.5391 15.1725 15.5553 15.0684 15.5684C14.9707 15.5879 14.86 15.5977 14.7363 15.5977C14.5866 15.5846 14.4238 15.5684 14.248 15.5488C14.0788 15.5293 13.9193 15.5195 13.7695 15.5195L13.252 15.5684ZM18.7988 10.334C18.89 9.98893 19.0039 9.66016 19.1406 9.34766C19.2773 9.02865 19.4336 8.70312 19.6094 8.37109L19.8828 8.04883L20 7.84375C20.0195 7.8112 20.0423 7.7819 20.0684 7.75586C20.0879 7.72982 20.1074 7.70703 20.127 7.6875C20.1465 7.66146 20.166 7.64193 20.1855 7.62891L20.7617 7.21875C20.7943 7.17969 20.8301 7.15365 20.8691 7.14062C20.9082 7.12109 20.944 7.10807 20.9766 7.10156C21.0156 7.08854 21.0547 7.07878 21.0938 7.07227C21.1328 7.05924 21.1686 7.03646 21.2012 7.00391L21.3867 6.81836L21.543 6.75H21.6895L22.2168 6.54492C22.2428 6.5319 22.2786 6.51888 22.3242 6.50586C22.3763 6.49284 22.4284 6.47982 22.4805 6.4668C22.5326 6.45378 22.5814 6.44401 22.627 6.4375C22.6725 6.43099 22.7051 6.42773 22.7246 6.42773H23.7207C23.7793 6.40169 23.8281 6.38867 23.8672 6.38867C23.9128 6.38216 23.9486 6.37891 23.9746 6.37891C24.1634 6.37891 24.3522 6.41146 24.541 6.47656C24.7298 6.53516 24.9186 6.59049 25.1074 6.64258H25.4785C25.4915 6.64258 25.5111 6.6556 25.5371 6.68164C25.5632 6.70117 25.5924 6.72721 25.625 6.75977L25.7324 6.86719C25.8952 6.95833 26.0547 7.04948 26.2109 7.14062C26.3672 7.22526 26.5234 7.31966 26.6797 7.42383C26.8099 7.52799 26.9108 7.64518 26.9824 7.77539C27.0605 7.89909 27.1484 8.02279 27.2461 8.14648C27.2591 8.15951 27.2819 8.19206 27.3145 8.24414C27.3535 8.28971 27.3926 8.3418 27.4316 8.40039C27.4707 8.45898 27.5065 8.51758 27.5391 8.57617C27.5781 8.63477 27.6042 8.68034 27.6172 8.71289L27.6758 8.83008L28.0566 10.0801C28.0762 10.1191 28.0924 10.1647 28.1055 10.2168C28.1185 10.2689 28.1315 10.321 28.1445 10.373C28.1576 10.4186 28.1673 10.4642 28.1738 10.5098C28.1803 10.5488 28.1836 10.5749 28.1836 10.5879V10.9004L28.125 11.1445V11.8477L27.6172 13.3418C27.487 13.5176 27.3503 13.6999 27.207 13.8887C27.0638 14.071 26.9206 14.2435 26.7773 14.4062C26.7773 14.4128 26.7643 14.429 26.7383 14.4551C26.6992 14.5072 26.6536 14.5625 26.6016 14.6211C26.5495 14.6797 26.4909 14.735 26.4258 14.7871C26.4128 14.8001 26.3737 14.8099 26.3086 14.8164C26.25 14.8229 26.1849 14.8424 26.1133 14.875L25.5273 15.2168C25.5143 15.2168 25.485 15.2233 25.4395 15.2363C25.4004 15.2428 25.3548 15.2526 25.3027 15.2656C25.2572 15.2721 25.2116 15.2786 25.166 15.2852C25.1204 15.2917 25.0879 15.2949 25.0684 15.2949C24.9512 15.321 24.8535 15.3568 24.7754 15.4023C24.7038 15.4479 24.5996 15.4707 24.4629 15.4707L23.4668 15.5C23.4408 15.5 23.3854 15.5 23.3008 15.5C23.2161 15.4935 23.125 15.4902 23.0273 15.4902C22.9297 15.4837 22.8353 15.4805 22.7441 15.4805C22.653 15.474 22.5846 15.4707 22.5391 15.4707L22.2656 15.4121L21.6406 15.3633L21.543 15.3145L20.5762 14.6406L20.3418 14.5332C20.2246 14.4681 20.127 14.3737 20.0488 14.25C19.9707 14.1198 19.8926 13.9961 19.8145 13.8789C19.7428 13.7487 19.668 13.6315 19.5898 13.5273C19.5182 13.4232 19.4466 13.3255 19.375 13.2344C19.3164 13.1302 19.2513 13.0293 19.1797 12.9316C19.1146 12.834 19.0527 12.7331 18.9941 12.6289C18.9421 12.5247 18.8965 12.4206 18.8574 12.3164C18.8184 12.2057 18.7988 12.0853 18.7988 11.9551L18.7207 11.1934L18.7988 10.334ZM20.8105 11.7109C20.8626 11.7695 20.8984 11.8216 20.918 11.8672C20.944 11.9128 20.9603 11.9551 20.9668 11.9941C20.9798 12.0332 20.9863 12.0755 20.9863 12.1211C20.9928 12.1667 21.0026 12.222 21.0156 12.2871C21.0677 12.502 21.1523 12.7266 21.2695 12.9609C21.3867 13.1953 21.5104 13.3939 21.6406 13.5566L22.0117 13.9082C22.1419 14.071 22.2656 14.2337 22.3828 14.3965C22.5 14.5527 22.6465 14.6667 22.8223 14.7383H23.2129C23.3561 14.7383 23.5091 14.722 23.6719 14.6895C23.8346 14.6504 23.9974 14.6178 24.1602 14.5918C24.2513 14.5918 24.3327 14.5885 24.4043 14.582C24.4759 14.569 24.5638 14.5299 24.668 14.4648L24.7852 14.3379C25.0977 14.1686 25.3678 13.9603 25.5957 13.7129L26.2695 12.6484L26.2402 11.6328C26.2728 11.5807 26.2923 11.5319 26.2988 11.4863C26.3053 11.4408 26.3086 11.3724 26.3086 11.2812C26.3086 11.1706 26.2826 11.0697 26.2305 10.9785C26.1784 10.8874 26.1523 10.7767 26.1523 10.6465L26.2402 10.2754C26.2207 10.1973 26.2012 10.1061 26.1816 10.002C26.1621 9.89779 26.1393 9.79362 26.1133 9.68945C26.0938 9.57878 26.0677 9.47786 26.0352 9.38672C26.0091 9.28906 25.9733 9.21094 25.9277 9.15234L25.4297 8.57617C25.4102 8.56315 25.3841 8.53385 25.3516 8.48828C25.3255 8.44271 25.2962 8.39062 25.2637 8.33203C25.2376 8.27344 25.2116 8.2181 25.1855 8.16602C25.166 8.11393 25.1562 8.07487 25.1562 8.04883L24.8633 7.84375C24.7461 7.71354 24.6289 7.60286 24.5117 7.51172C24.3945 7.41406 24.2546 7.35221 24.0918 7.32617L23.6133 7.26758C23.444 7.24154 23.2943 7.21224 23.1641 7.17969C23.0339 7.14062 22.8874 7.12109 22.7246 7.12109H22.6562L22.0605 7.47266L21.1133 8.57617C21.0872 8.64779 21.0645 8.71289 21.0449 8.77148C21.0254 8.83008 21.0156 8.88867 21.0156 8.94727L20.9668 9.25L20.8105 9.65039V9.9043C20.8105 9.99544 20.8236 10.0801 20.8496 10.1582C20.8822 10.2363 20.8984 10.3275 20.8984 10.4316C20.8984 10.4837 20.8952 10.526 20.8887 10.5586C20.8822 10.5846 20.8561 10.6139 20.8105 10.6465V11.7109ZM32.1289 14.0449C31.9857 13.8301 31.888 13.625 31.8359 13.4297C31.7839 13.2279 31.7415 13.0293 31.709 12.834C31.6764 12.6387 31.6309 12.4466 31.5723 12.2578C31.5202 12.0625 31.416 11.8639 31.2598 11.6621L31.0645 10.8418V10.4609C31.0645 10.4609 31.0547 10.4447 31.0352 10.4121C31.0156 10.373 30.9896 10.3307 30.957 10.2852C30.931 10.2331 30.9049 10.1842 30.8789 10.1387C30.8529 10.0931 30.8333 10.0605 30.8203 10.041L30.625 9.78711V9.2793C30.625 9.25977 30.612 9.23047 30.5859 9.19141C30.5664 9.14583 30.5404 9.10026 30.5078 9.05469C30.4818 9.0026 30.4557 8.95703 30.4297 8.91797C30.4036 8.87891 30.3874 8.85286 30.3809 8.83984C30.2897 8.68359 30.2181 8.50781 30.166 8.3125C30.1139 8.11068 30.0521 7.92839 29.9805 7.76562C29.9414 7.68099 29.9056 7.61914 29.873 7.58008C29.8405 7.53451 29.7949 7.50195 29.7363 7.48242C29.6842 7.45638 29.6126 7.4401 29.5215 7.43359C29.4368 7.42057 29.3197 7.40104 29.1699 7.375C29.0658 7.35547 28.9779 7.32617 28.9062 7.28711C28.8346 7.24154 28.7988 7.17318 28.7988 7.08203C28.7988 6.95182 28.8249 6.83789 28.877 6.74023C28.9355 6.64258 28.9941 6.54818 29.0527 6.45703L29.5605 6.35938H29.7559C29.9447 6.43099 30.1432 6.48633 30.3516 6.52539C30.5599 6.56445 30.7617 6.58398 30.957 6.58398C31.1198 6.58398 31.263 6.5612 31.3867 6.51562C31.5169 6.47005 31.6569 6.44727 31.8066 6.44727C31.8262 6.44727 31.8587 6.45052 31.9043 6.45703C31.9564 6.45703 32.0117 6.46029 32.0703 6.4668C32.1289 6.47331 32.181 6.47982 32.2266 6.48633C32.2721 6.48633 32.3014 6.48958 32.3145 6.49609C32.347 6.52214 32.3828 6.54492 32.4219 6.56445C32.4674 6.57747 32.5098 6.59701 32.5488 6.62305C32.5879 6.64258 32.6204 6.66862 32.6465 6.70117C32.6725 6.72721 32.6855 6.76628 32.6855 6.81836C32.6855 6.88997 32.6693 6.97786 32.6367 7.08203C32.6042 7.17969 32.5586 7.27083 32.5 7.35547C32.4544 7.40755 32.3796 7.45964 32.2754 7.51172C32.1712 7.55729 32.1029 7.60612 32.0703 7.6582V7.86328L32.0898 7.98047C32.0964 8.05859 32.1094 8.14974 32.1289 8.25391C32.1484 8.35807 32.168 8.46549 32.1875 8.57617C32.207 8.68034 32.2266 8.77799 32.2461 8.86914C32.2721 8.96029 32.2949 9.02539 32.3145 9.06445L32.5098 9.2793C32.5684 9.40299 32.6139 9.53646 32.6465 9.67969C32.6855 9.81641 32.7148 9.95638 32.7344 10.0996C32.7604 10.2363 32.7832 10.3763 32.8027 10.5195C32.8223 10.6628 32.8483 10.7962 32.8809 10.9199L33.2031 11.4961C33.2227 11.5417 33.2389 11.6068 33.252 11.6914C33.265 11.776 33.2812 11.8607 33.3008 11.9453C33.3268 12.0234 33.3594 12.0918 33.3984 12.1504C33.4375 12.209 33.4928 12.2383 33.5645 12.2383C33.6426 12.2383 33.7077 12.209 33.7598 12.1504C33.8184 12.0918 33.8672 12.0234 33.9062 11.9453C33.9518 11.8672 33.9876 11.7891 34.0137 11.7109C34.0462 11.6328 34.0755 11.5775 34.1016 11.5449C34.1016 11.5319 34.1276 11.4993 34.1797 11.4473C34.2318 11.3887 34.2676 11.3529 34.2871 11.3398C34.3717 11.2357 34.4303 11.1152 34.4629 10.9785C34.4954 10.8353 34.528 10.6953 34.5605 10.5586C34.5931 10.4154 34.6354 10.2786 34.6875 10.1484C34.7461 10.0182 34.8438 9.91406 34.9805 9.83594L35 9.43555C35 9.40951 34.9967 9.3737 34.9902 9.32812C34.9902 9.27604 34.9902 9.23047 34.9902 9.19141C34.9902 9.14583 34.987 9.10677 34.9805 9.07422C34.9805 9.03516 34.9805 9.01562 34.9805 9.01562L34.8438 8.71289C34.8177 8.64128 34.8014 8.56641 34.7949 8.48828C34.7949 8.41016 34.7884 8.32552 34.7754 8.23438C34.7624 8.16276 34.7526 8.0944 34.7461 8.0293C34.7396 7.95768 34.7266 7.88607 34.707 7.81445C34.6549 7.69076 34.5801 7.61589 34.4824 7.58984C34.3848 7.55729 34.2839 7.52799 34.1797 7.50195C34.0755 7.47591 33.9746 7.43685 33.877 7.38477C33.7793 7.32617 33.7012 7.20898 33.6426 7.0332V6.93555C33.6426 6.87695 33.6491 6.81185 33.6621 6.74023C33.6751 6.66211 33.6979 6.61328 33.7305 6.59375C33.8021 6.55469 33.903 6.5319 34.0332 6.52539C34.1634 6.51888 34.2871 6.51562 34.4043 6.51562H34.7266C34.7331 6.51562 34.7591 6.52214 34.8047 6.53516C34.8503 6.54818 34.9023 6.5612 34.9609 6.57422C35.026 6.58724 35.0911 6.60026 35.1562 6.61328C35.2214 6.6263 35.2734 6.63281 35.3125 6.63281L36.0938 6.44727L36.9434 6.58398C37.0085 6.58398 37.0703 6.57422 37.1289 6.55469C37.1875 6.52865 37.2526 6.51562 37.3242 6.51562C37.4935 6.51562 37.6237 6.54818 37.7148 6.61328C37.806 6.67839 37.8516 6.79557 37.8516 6.96484C37.8516 7.14062 37.7962 7.26107 37.6855 7.32617C37.5749 7.39128 37.4414 7.43685 37.2852 7.46289C37.1354 7.48242 36.9824 7.50195 36.8262 7.52148C36.6699 7.53451 36.5495 7.58008 36.4648 7.6582V7.79492C36.4648 7.86654 36.4746 7.92513 36.4941 7.9707C36.5202 8.00977 36.5462 8.04883 36.5723 8.08789C36.6048 8.12695 36.6341 8.16927 36.6602 8.21484C36.6862 8.25391 36.7057 8.3125 36.7188 8.39062V9.01562C36.7253 9.04167 36.7513 9.13607 36.7969 9.29883C36.8424 9.45508 36.8945 9.64388 36.9531 9.86523C37.0182 10.0866 37.0866 10.3242 37.1582 10.5781C37.2363 10.8255 37.3047 11.0566 37.3633 11.2715C37.4284 11.4863 37.4805 11.6654 37.5195 11.8086C37.5651 11.9518 37.5911 12.0267 37.5977 12.0332C37.6432 12.0788 37.6758 12.1048 37.6953 12.1113C37.7148 12.1178 37.7376 12.1211 37.7637 12.1211C37.8092 12.1211 37.8483 12.1178 37.8809 12.1113C37.9134 12.1048 37.9557 12.0788 38.0078 12.0332C38.0078 12.0267 38.0111 12.0104 38.0176 11.9844C38.0306 11.9583 38.0436 11.9323 38.0566 11.9062C38.1022 11.7695 38.1608 11.6393 38.2324 11.5156C38.3105 11.3854 38.3887 11.2585 38.4668 11.1348C38.5449 11.0046 38.6198 10.8776 38.6914 10.7539C38.763 10.6302 38.8216 10.5 38.8672 10.3633C38.8737 10.3568 38.877 10.3372 38.877 10.3047C38.8835 10.2721 38.89 10.2396 38.8965 10.207C38.903 10.168 38.9062 10.1354 38.9062 10.1094C38.9128 10.0768 38.916 10.054 38.916 10.041C38.9746 9.87826 39.0299 9.74479 39.082 9.64062C39.1406 9.53646 39.1862 9.41602 39.2188 9.2793L39.2676 8.83984C39.3132 8.76172 39.362 8.68685 39.4141 8.61523C39.4727 8.54362 39.5247 8.47201 39.5703 8.40039C39.6224 8.32227 39.6647 8.24414 39.6973 8.16602C39.7298 8.08789 39.7461 8.00977 39.7461 7.93164V7.84375C39.7331 7.69401 39.6875 7.58333 39.6094 7.51172C39.5312 7.4401 39.4401 7.38802 39.3359 7.35547C39.2383 7.31641 39.1374 7.28385 39.0332 7.25781C38.9355 7.23177 38.8639 7.1862 38.8184 7.12109L38.7598 6.89648C38.7598 6.7793 38.8053 6.69141 38.8965 6.63281L38.9355 6.58398C38.9421 6.55143 38.9648 6.52865 39.0039 6.51562C39.043 6.5026 39.1374 6.49609 39.2871 6.49609C39.3457 6.49609 39.3913 6.49609 39.4238 6.49609C39.4629 6.49609 39.4987 6.49935 39.5312 6.50586C39.5703 6.50586 39.6094 6.50911 39.6484 6.51562C39.694 6.51562 39.7526 6.51888 39.8242 6.52539C40.0391 6.52539 40.2181 6.51888 40.3613 6.50586C40.5046 6.48633 40.6413 6.47005 40.7715 6.45703H40.8105C40.8431 6.45703 40.9017 6.46354 40.9863 6.47656C41.0775 6.48958 41.1296 6.49609 41.1426 6.49609L41.6699 6.47656C41.722 6.47656 41.7708 6.48307 41.8164 6.49609C41.862 6.5026 41.8913 6.51237 41.9043 6.52539C41.9303 6.55794 41.9596 6.58073 41.9922 6.59375C42.0247 6.60026 42.0475 6.62305 42.0605 6.66211V6.7793C42.0605 6.90951 42.0443 7.00716 42.0117 7.07227C41.9792 7.13737 41.9499 7.1862 41.9238 7.21875C41.8717 7.27083 41.7904 7.31641 41.6797 7.35547C41.5755 7.39453 41.4616 7.43685 41.3379 7.48242C41.2142 7.52799 41.097 7.58333 40.9863 7.64844C40.8757 7.70703 40.7943 7.77865 40.7422 7.86328C40.612 8.05859 40.5013 8.2474 40.4102 8.42969C40.3255 8.60547 40.2441 8.78451 40.166 8.9668C40.0944 9.14258 40.0195 9.32161 39.9414 9.50391C39.8633 9.67969 39.7689 9.86523 39.6582 10.0605C39.6061 10.1712 39.5508 10.2786 39.4922 10.3828C39.4336 10.4805 39.3783 10.5814 39.3262 10.6855C39.2806 10.7897 39.2415 10.9004 39.209 11.0176C39.1829 11.1348 39.1699 11.2617 39.1699 11.3984L39.0137 11.584C39.0137 11.623 39.0072 11.6751 38.9941 11.7402C38.9811 11.8053 38.9648 11.8737 38.9453 11.9453C38.9258 12.0169 38.8997 12.0853 38.8672 12.1504C38.8411 12.209 38.8118 12.2513 38.7793 12.2773L38.6426 12.6289L38.3203 13.3223C38.2552 13.4525 38.2064 13.5632 38.1738 13.6543C38.1478 13.7454 38.1185 13.8333 38.0859 13.918C38.0534 14.0026 38.0143 14.0905 37.9688 14.1816C37.9232 14.2728 37.8548 14.3802 37.7637 14.5039C37.6986 14.6081 37.653 14.709 37.627 14.8066C37.6074 14.9043 37.5814 14.9922 37.5488 15.0703C37.5228 15.1419 37.474 15.2005 37.4023 15.2461C37.3372 15.2917 37.2266 15.3145 37.0703 15.3145C36.9466 15.3145 36.8522 15.3047 36.7871 15.2852C36.7285 15.2656 36.6797 15.2363 36.6406 15.1973C36.6081 15.1582 36.5755 15.1094 36.543 15.0508C36.5104 14.9857 36.4616 14.9108 36.3965 14.8262C36.4095 14.7741 36.416 14.7285 36.416 14.6895C36.416 14.6439 36.416 14.5983 36.416 14.5527C36.416 14.403 36.3997 14.2598 36.3672 14.123C36.3346 13.9863 36.2956 13.8529 36.25 13.7227C36.2044 13.5924 36.1621 13.4622 36.123 13.332C36.084 13.1953 36.0579 13.0521 36.0449 12.9023L35.9766 12.1699C35.9635 12.1048 35.931 12.0039 35.8789 11.8672C35.8268 11.724 35.765 11.5807 35.6934 11.4375C35.6283 11.2943 35.5599 11.1706 35.4883 11.0664C35.4167 10.9557 35.3548 10.9004 35.3027 10.9004C35.2246 10.9004 35.153 10.9232 35.0879 10.9688C35.0293 11.0078 34.9935 11.0469 34.9805 11.0859C34.9674 11.1055 34.9414 11.1576 34.9023 11.2422C34.8633 11.3268 34.8438 11.3822 34.8438 11.4082C34.7721 11.7077 34.6777 11.9714 34.5605 12.1992C34.4499 12.4206 34.3294 12.6549 34.1992 12.9023L34.0137 13.166C34.0137 13.179 34.0072 13.2051 33.9941 13.2441C33.9876 13.2832 33.9779 13.3092 33.9648 13.3223C33.9648 13.3288 33.9616 13.3548 33.9551 13.4004C33.9486 13.4395 33.9388 13.485 33.9258 13.5371C33.9193 13.5827 33.9095 13.6283 33.8965 13.6738C33.89 13.7129 33.8835 13.7357 33.877 13.7422C33.877 13.7487 33.8672 13.765 33.8477 13.791C33.8346 13.8171 33.8151 13.8464 33.7891 13.8789C33.7695 13.9049 33.75 13.931 33.7305 13.957C33.7109 13.9766 33.6979 13.9896 33.6914 13.9961C33.6263 14.1458 33.5807 14.3086 33.5547 14.4844C33.5352 14.6602 33.4993 14.8229 33.4473 14.9727C33.4017 15.1224 33.3236 15.2493 33.2129 15.3535C33.1022 15.4512 32.9297 15.5 32.6953 15.5C32.5846 15.5 32.4902 15.4837 32.4121 15.4512C32.3405 15.4186 32.2949 15.3275 32.2754 15.1777L32.1289 14.0449ZM42.3242 11.2227C42.3242 11.1901 42.3307 11.1283 42.3438 11.0371C42.3568 10.9395 42.3698 10.8385 42.3828 10.7344C42.4023 10.6237 42.4154 10.5195 42.4219 10.4219C42.4349 10.3242 42.4414 10.2591 42.4414 10.2266C42.4674 9.91406 42.5358 9.59505 42.6465 9.26953C42.7637 8.94401 42.9102 8.63151 43.0859 8.33203C43.2617 8.02604 43.4635 7.74609 43.6914 7.49219C43.9258 7.23828 44.1797 7.02344 44.4531 6.84766C44.4596 6.83464 44.4922 6.81185 44.5508 6.7793C44.6159 6.74674 44.6842 6.71419 44.7559 6.68164C44.8275 6.64909 44.8958 6.61654 44.9609 6.58398C45.026 6.55143 45.0651 6.52865 45.0781 6.51562C45.1237 6.49609 45.1823 6.46354 45.2539 6.41797C45.332 6.36589 45.4102 6.31706 45.4883 6.27148C45.5664 6.2194 45.6445 6.17383 45.7227 6.13477C45.8008 6.0957 45.8724 6.07617 45.9375 6.07617C45.9961 6.07617 46.0417 6.08268 46.0742 6.0957C46.1133 6.10872 46.1589 6.12826 46.2109 6.1543C46.3216 6.14128 46.4258 6.13151 46.5234 6.125C46.6276 6.11198 46.7318 6.10547 46.8359 6.10547C46.9466 6.10547 47.0508 6.11198 47.1484 6.125C47.2461 6.13151 47.3503 6.14128 47.4609 6.1543C47.4609 6.1543 47.474 6.16081 47.5 6.17383C47.526 6.18034 47.5553 6.1901 47.5879 6.20312C47.6204 6.21615 47.653 6.22917 47.6855 6.24219C47.7181 6.25521 47.7441 6.26497 47.7637 6.27148C47.7832 6.27799 47.8223 6.29753 47.8809 6.33008C47.9395 6.35612 48.0046 6.38867 48.0762 6.42773C48.1478 6.4668 48.2161 6.5026 48.2812 6.53516C48.3464 6.5612 48.3919 6.57747 48.418 6.58398C48.418 6.59049 48.4408 6.60026 48.4863 6.61328C48.5319 6.6263 48.5612 6.63281 48.5742 6.63281L48.9648 6.84766L49.8438 7.64844C49.8698 7.68099 49.9089 7.76888 49.9609 7.91211C50.0195 8.04883 50.0749 8.20182 50.127 8.37109C50.1855 8.53385 50.2344 8.6901 50.2734 8.83984C50.319 8.98958 50.3418 9.08724 50.3418 9.13281C50.3418 9.22396 50.3158 9.29883 50.2637 9.35742C50.2116 9.40951 50.1497 9.45508 50.0781 9.49414C50.0065 9.52669 49.9284 9.55273 49.8438 9.57227C49.7656 9.58529 49.6973 9.59505 49.6387 9.60156H49.5996C49.5345 9.60807 49.4271 9.61458 49.2773 9.62109C49.1341 9.6276 48.9811 9.63411 48.8184 9.64062C48.6621 9.64062 48.5124 9.64388 48.3691 9.65039C48.2324 9.65039 48.138 9.65039 48.0859 9.65039C48.0143 9.68294 47.9492 9.70247 47.8906 9.70898C47.8385 9.71549 47.7832 9.71875 47.7246 9.71875L47.0312 9.65039C46.901 9.65039 46.7643 9.67318 46.6211 9.71875C46.4844 9.76432 46.3509 9.78711 46.2207 9.78711C46.1361 9.78711 46.0514 9.75781 45.9668 9.69922C45.8887 9.63411 45.8008 9.60156 45.7031 9.60156C45.6901 9.60156 45.6543 9.61784 45.5957 9.65039C45.5436 9.67643 45.5046 9.68945 45.4785 9.68945L44.7363 9.64062C44.6322 9.64062 44.5345 9.66016 44.4434 9.69922C44.3522 9.73828 44.248 9.80664 44.1309 9.9043C44.1113 10.0736 44.0983 10.2233 44.0918 10.3535C44.0853 10.4772 44.082 10.6172 44.082 10.7734C44.082 10.9102 44.0885 11.0208 44.1016 11.1055C44.1211 11.1901 44.1471 11.2715 44.1797 11.3496C44.2122 11.4212 44.2513 11.4961 44.2969 11.5742C44.3424 11.6458 44.3945 11.737 44.4531 11.8477L44.5508 12.0332C44.7201 12.4043 44.9382 12.7038 45.2051 12.9316C45.472 13.1595 45.8171 13.3385 46.2402 13.4688C46.2402 13.5013 46.2858 13.5339 46.377 13.5664C46.4746 13.5924 46.582 13.612 46.6992 13.625C46.8359 13.651 46.9922 13.6673 47.168 13.6738C47.3828 13.6738 47.6042 13.6608 47.832 13.6348C48.0599 13.6087 48.2812 13.5664 48.4961 13.5078C48.7109 13.4492 48.9128 13.3711 49.1016 13.2734C49.2969 13.1758 49.4629 13.0553 49.5996 12.9121H49.7559C49.834 12.9121 49.8861 12.9251 49.9121 12.9512C49.9447 12.9707 49.9772 13.0326 50.0098 13.1367C49.9902 13.3255 49.9609 13.4948 49.9219 13.6445C49.8893 13.7878 49.8405 13.918 49.7754 14.0352C49.7168 14.1523 49.6387 14.263 49.541 14.3672C49.4434 14.4648 49.3164 14.5658 49.1602 14.6699C49.1081 14.709 49.0592 14.7383 49.0137 14.7578C48.9681 14.7708 48.9258 14.7839 48.8867 14.7969C48.8477 14.8099 48.8053 14.8294 48.7598 14.8555C48.7207 14.8815 48.6751 14.9271 48.623 14.9922L47.5781 15.5195L47.4609 15.5L46.7285 15.6172C46.1816 15.6172 45.6901 15.5391 45.2539 15.3828C44.8177 15.2266 44.4271 15.0052 44.082 14.7188C43.7435 14.4258 43.4473 14.0775 43.1934 13.6738C42.946 13.2702 42.7344 12.8242 42.5586 12.3359C42.5 12.1602 42.4642 11.9811 42.4512 11.7988C42.4382 11.61 42.3958 11.418 42.3242 11.2227ZM44.248 8.55664C44.248 8.58919 44.2513 8.63802 44.2578 8.70312C44.2708 8.76823 44.2871 8.83333 44.3066 8.89844C44.3262 8.96354 44.349 9.02214 44.375 9.07422C44.401 9.1263 44.4271 9.1556 44.4531 9.16211H44.7559L46.0547 8.95703L46.8848 9.02539C47.028 9.02539 47.1549 9.01237 47.2656 8.98633C47.3828 8.96029 47.5098 8.93099 47.6465 8.89844C47.7702 8.87891 47.8743 8.86263 47.959 8.84961C48.0501 8.83008 48.1217 8.79753 48.1738 8.75195C48.2324 8.70638 48.2747 8.64779 48.3008 8.57617C48.3268 8.49805 48.3398 8.39062 48.3398 8.25391C48.3398 8.02604 48.278 7.82747 48.1543 7.6582C48.0306 7.48893 47.8743 7.34896 47.6855 7.23828C47.5033 7.12109 47.3014 7.03646 47.0801 6.98438C46.8652 6.92578 46.6634 6.89648 46.4746 6.89648C46.429 6.89648 46.3639 6.90951 46.2793 6.93555C46.1947 6.95508 46.097 6.98438 45.9863 7.02344C45.8822 7.05599 45.7715 7.09505 45.6543 7.14062C45.5436 7.17969 45.4395 7.22526 45.3418 7.27734C45.2507 7.32292 45.1693 7.36849 45.0977 7.41406C45.026 7.45312 44.9805 7.48893 44.9609 7.52148L44.7559 7.96094C44.7168 8.00651 44.668 8.04883 44.6094 8.08789C44.5508 8.12695 44.4922 8.16927 44.4336 8.21484C44.3815 8.26042 44.3359 8.3125 44.2969 8.37109C44.2643 8.42318 44.248 8.48503 44.248 8.55664ZM51.4746 14.9043C51.4746 14.8522 51.5072 14.8164 51.5723 14.7969C51.6439 14.7708 51.696 14.7415 51.7285 14.709C51.8001 14.6309 51.8815 14.5755 51.9727 14.543C52.0703 14.5104 52.1387 14.4844 52.1777 14.4648C52.2298 14.4323 52.2656 14.3932 52.2852 14.3477C52.3047 14.2956 52.3503 14.2565 52.4219 14.2305L52.6562 14.1523C52.6953 14.1523 52.7279 14.123 52.7539 14.0645C52.7799 14.0059 52.7962 13.9733 52.8027 13.9668C52.7962 13.9342 52.793 13.8789 52.793 13.8008C52.793 13.7227 52.793 13.6478 52.793 13.5762C52.793 13.485 52.793 13.4036 52.793 13.332C52.793 13.2539 52.7962 13.1888 52.8027 13.1367L52.8613 12.8438V11.3398C52.8613 11.3268 52.8646 11.2975 52.8711 11.252C52.8776 11.2064 52.8841 11.1576 52.8906 11.1055C52.8971 11.0534 52.9036 11.0046 52.9102 10.959C52.9167 10.9134 52.9232 10.8841 52.9297 10.8711V10.8027C52.9232 10.7637 52.9167 10.7051 52.9102 10.627C52.9036 10.5423 52.8971 10.4609 52.8906 10.3828C52.8841 10.2982 52.8776 10.2233 52.8711 10.1582C52.8646 10.0931 52.8613 10.054 52.8613 10.041C52.8548 10.0215 52.8483 9.98893 52.8418 9.94336C52.8353 9.89779 52.8288 9.84896 52.8223 9.79688C52.8158 9.74479 52.8092 9.69596 52.8027 9.65039C52.8027 9.60482 52.8027 9.57227 52.8027 9.55273C52.7832 9.46159 52.7507 9.3737 52.7051 9.28906C52.6595 9.20443 52.6074 9.1263 52.5488 9.05469C52.4902 8.97656 52.4284 8.90169 52.3633 8.83008C52.2982 8.75195 52.2363 8.67708 52.1777 8.60547C52.1712 8.60547 52.1484 8.58268 52.1094 8.53711C52.0703 8.48503 52.0508 8.45247 52.0508 8.43945L51.4746 7.90234L51.9434 7.42383C51.9564 7.41732 51.9824 7.4043 52.0215 7.38477C52.0671 7.36523 52.1126 7.3457 52.1582 7.32617C52.2103 7.30013 52.2591 7.27734 52.3047 7.25781C52.3568 7.23828 52.3958 7.22526 52.4219 7.21875C52.4349 7.20573 52.4609 7.19596 52.5 7.18945C52.5456 7.17643 52.5911 7.16667 52.6367 7.16016C52.6888 7.15365 52.7344 7.15039 52.7734 7.15039C52.819 7.14388 52.8483 7.14062 52.8613 7.14062C52.985 7.10156 53.0957 7.04948 53.1934 6.98438C53.2975 6.91276 53.3984 6.8444 53.4961 6.7793C53.5938 6.70768 53.6914 6.64583 53.7891 6.59375C53.8932 6.54167 54.0104 6.51562 54.1406 6.51562H54.2969C54.3034 6.52214 54.3392 6.55794 54.4043 6.62305C54.4694 6.68164 54.5182 6.72396 54.5508 6.75C54.5964 6.82161 54.6191 6.91276 54.6191 7.02344C54.6191 7.1276 54.6224 7.23177 54.6289 7.33594C54.6354 7.43359 54.6582 7.51823 54.6973 7.58984C54.7363 7.66146 54.821 7.69727 54.9512 7.69727C54.9707 7.69727 54.9902 7.69727 55.0098 7.69727C55.0358 7.69727 55.0488 7.69076 55.0488 7.67773C55.0749 7.67122 55.1107 7.6582 55.1562 7.63867C55.2018 7.61263 55.2474 7.58333 55.293 7.55078C55.3451 7.51823 55.3906 7.48568 55.4297 7.45312C55.4753 7.42057 55.5078 7.39453 55.5273 7.375L55.9277 7.07227C55.9408 7.05924 55.9831 7.02995 56.0547 6.98438C56.1263 6.93229 56.1751 6.89323 56.2012 6.86719C56.2077 6.86719 56.2337 6.86719 56.2793 6.86719C56.3249 6.86068 56.3704 6.85742 56.416 6.85742C56.4681 6.85091 56.5169 6.8444 56.5625 6.83789C56.6081 6.83138 56.6406 6.82487 56.6602 6.81836C56.6667 6.81836 56.6862 6.81185 56.7188 6.79883C56.7578 6.78581 56.7969 6.77279 56.8359 6.75977C56.8815 6.74674 56.9206 6.73372 56.9531 6.7207C56.9857 6.70768 57.0052 6.70117 57.0117 6.70117H57.1191C57.2689 6.70117 57.3893 6.74674 57.4805 6.83789C57.5781 6.92904 57.666 7.02995 57.7441 7.14062C57.7897 7.19922 57.8158 7.28385 57.8223 7.39453C57.8353 7.4987 57.8581 7.57682 57.8906 7.62891C57.8906 7.64844 57.9004 7.66797 57.9199 7.6875L57.959 7.72656C57.959 8.03906 57.9134 8.31901 57.8223 8.56641C57.7376 8.80729 57.5911 9.0026 57.3828 9.15234C57.3242 9.16536 57.2559 9.17839 57.1777 9.19141C57.0996 9.19792 57.0345 9.20117 56.9824 9.20117C56.8457 9.20117 56.7448 9.19466 56.6797 9.18164C56.6146 9.16211 56.5658 9.13607 56.5332 9.10352C56.5007 9.07096 56.4714 9.02865 56.4453 8.97656C56.4258 8.92448 56.39 8.86263 56.3379 8.79102C56.2923 8.73242 56.237 8.68685 56.1719 8.6543C56.1133 8.61523 56.0547 8.58919 55.9961 8.57617C55.9375 8.55664 55.8822 8.54362 55.8301 8.53711C55.7845 8.5306 55.7552 8.52734 55.7422 8.52734L55.3223 8.45898L54.9707 8.55664L54.8535 8.71289C54.821 8.7194 54.7754 8.75195 54.7168 8.81055C54.6582 8.86263 54.5996 8.92448 54.541 8.99609C54.4889 9.0612 54.4434 9.13281 54.4043 9.21094C54.3652 9.28255 54.3457 9.34115 54.3457 9.38672L54.2969 10.0898L54.3457 10.3633V10.8711C54.3457 10.8841 54.349 10.9232 54.3555 10.9883C54.3685 11.0469 54.3815 11.0924 54.3945 11.125L54.3262 12.0039L54.3945 12.3359C54.3945 12.3815 54.3815 12.4271 54.3555 12.4727C54.3359 12.5182 54.3262 12.5768 54.3262 12.6484L54.3945 12.9805L54.3262 13.3418C54.3262 13.3483 54.3262 13.3581 54.3262 13.3711C54.3262 13.3841 54.3327 13.3906 54.3457 13.3906C54.3522 13.4297 54.3717 13.485 54.4043 13.5566C54.4434 13.6283 54.4824 13.7031 54.5215 13.7812C54.5671 13.8594 54.6061 13.9342 54.6387 14.0059C54.6777 14.071 54.7038 14.1198 54.7168 14.1523C54.7168 14.1589 54.7233 14.1719 54.7363 14.1914C54.7493 14.2109 54.7656 14.2207 54.7852 14.2207C54.8438 14.2533 54.8991 14.2956 54.9512 14.3477C55.0098 14.3997 55.0781 14.4388 55.1562 14.4648C55.2018 14.4844 55.2604 14.5039 55.332 14.5234C55.4036 14.5365 55.4785 14.5527 55.5566 14.5723C55.6413 14.5918 55.7227 14.6146 55.8008 14.6406C55.8854 14.6667 55.9635 14.6992 56.0352 14.7383C56.0742 14.7904 56.11 14.8522 56.1426 14.9238C56.1816 14.9954 56.2012 15.0736 56.2012 15.1582C56.2012 15.2298 56.1882 15.2819 56.1621 15.3145C56.1426 15.347 56.11 15.3796 56.0645 15.4121C56.0254 15.4382 55.9603 15.4512 55.8691 15.4512L55.5566 15.4805C55.446 15.4935 55.3451 15.5 55.2539 15.5C55.1693 15.5 55.0977 15.5 55.0391 15.5C54.987 15.5 54.9284 15.4935 54.8633 15.4805C54.8047 15.4609 54.7396 15.4512 54.668 15.4512C54.4857 15.4512 54.3132 15.474 54.1504 15.5195C53.9876 15.5716 53.8216 15.5977 53.6523 15.5977L53.2129 15.4512L52.5879 15.5977H52.4219L52.2852 15.5C52.2721 15.5 52.2363 15.4967 52.1777 15.4902C52.1191 15.4772 52.0345 15.4642 51.9238 15.4512C51.8978 15.4512 51.8717 15.4382 51.8457 15.4121C51.8262 15.4056 51.7936 15.3958 51.748 15.3828C51.709 15.3698 51.6439 15.3405 51.5527 15.2949C51.5007 15.2233 51.4746 15.1549 51.4746 15.0898V15.0605V14.9043ZM59.4434 20.1094C59.4434 20.0508 59.4434 19.9987 59.4434 19.9531C59.4499 19.9076 59.4694 19.849 59.502 19.7773C59.5345 19.6276 59.6029 19.5039 59.707 19.4062C59.8177 19.3086 59.9837 19.2272 60.2051 19.1621C60.2246 19.1556 60.2572 19.1458 60.3027 19.1328C60.3483 19.1263 60.3939 19.1198 60.4395 19.1133C60.485 19.1068 60.5241 19.1003 60.5566 19.0938C60.5957 19.0938 60.6185 19.0938 60.625 19.0938L60.9863 19.1621L61.2012 19.0938C61.2207 19.0938 61.25 19.0905 61.2891 19.084C61.3281 19.084 61.3835 19.084 61.4551 19.084C61.5723 19.084 61.6504 19.0807 61.6895 19.0742C61.735 19.0677 61.7708 19.0482 61.7969 19.0156C61.849 18.9375 61.8913 18.8691 61.9238 18.8105C61.9564 18.752 61.9824 18.6934 62.002 18.6348C62.028 18.5827 62.0475 18.5241 62.0605 18.459C62.0801 18.4004 62.0996 18.3255 62.1191 18.2344C62.1191 18.2279 62.1224 18.2051 62.1289 18.166C62.1354 18.1335 62.1419 18.0944 62.1484 18.0488C62.1549 18.0033 62.1615 17.9609 62.168 17.9219C62.1745 17.8828 62.181 17.8535 62.1875 17.834C62.1875 17.8079 62.2038 17.7591 62.2363 17.6875C62.2689 17.6159 62.3047 17.541 62.3438 17.4629C62.3828 17.3848 62.4186 17.3099 62.4512 17.2383C62.4902 17.1732 62.5195 17.1243 62.5391 17.0918L62.4707 16.6816C62.5423 16.5645 62.5977 16.457 62.6367 16.3594C62.6758 16.2617 62.6953 16.1445 62.6953 16.0078C62.6953 15.9883 62.6921 15.9622 62.6855 15.9297C62.679 15.9036 62.6758 15.8841 62.6758 15.8711C62.6758 15.819 62.6725 15.7539 62.666 15.6758C62.666 15.6042 62.6628 15.5358 62.6562 15.4707C62.6497 15.3991 62.6432 15.3372 62.6367 15.2852C62.6302 15.2331 62.627 15.2038 62.627 15.1973C62.627 15.1777 62.6139 15.1387 62.5879 15.0801C62.5618 15.015 62.5326 14.9466 62.5 14.875C62.474 14.8034 62.4447 14.735 62.4121 14.6699C62.3861 14.6048 62.373 14.5592 62.373 14.5332C62.3665 14.5202 62.3535 14.4811 62.334 14.416C62.3145 14.3509 62.2917 14.2826 62.2656 14.2109C62.2461 14.1328 62.2266 14.0612 62.207 13.9961C62.194 13.931 62.1875 13.8919 62.1875 13.8789L61.875 13.3516C61.875 13.3451 61.8717 13.319 61.8652 13.2734C61.8587 13.2279 61.8522 13.179 61.8457 13.127C61.8392 13.0749 61.8294 13.026 61.8164 12.9805C61.8099 12.9284 61.8034 12.8958 61.7969 12.8828C61.7969 12.8242 61.7904 12.7526 61.7773 12.668C61.7643 12.5768 61.7546 12.5312 61.748 12.5312C61.7415 12.5117 61.722 12.4857 61.6895 12.4531C61.6634 12.4206 61.6309 12.388 61.5918 12.3555C61.5592 12.3229 61.5267 12.2936 61.4941 12.2676C61.4616 12.2415 61.4453 12.2253 61.4453 12.2188L61.3086 11.8672L60.9863 11.4082L60.625 10.4805C60.6185 10.4674 60.599 10.4316 60.5664 10.373C60.5404 10.3079 60.5273 10.2721 60.5273 10.2656C60.5143 10.2526 60.4948 10.2363 60.4688 10.2168C60.4427 10.1908 60.4297 10.1712 60.4297 10.1582C60.4232 10.1517 60.4167 10.1224 60.4102 10.0703C60.4036 10.0182 60.3971 9.96289 60.3906 9.9043C60.3906 9.8457 60.3874 9.79362 60.3809 9.74805C60.3809 9.69596 60.3809 9.66341 60.3809 9.65039C60.3548 9.54622 60.3158 9.43555 60.2637 9.31836C60.2116 9.19466 60.1562 9.07422 60.0977 8.95703C60.0391 8.83333 59.9772 8.71289 59.9121 8.5957C59.8535 8.47852 59.8014 8.37109 59.7559 8.27344C59.7559 8.26042 59.7493 8.22786 59.7363 8.17578C59.7233 8.11719 59.7103 8.08138 59.6973 8.06836C59.6973 8.04883 59.681 8.02279 59.6484 7.99023C59.6224 7.95117 59.5931 7.92513 59.5605 7.91211C59.3717 7.76237 59.1699 7.64518 58.9551 7.56055C58.7467 7.47591 58.5286 7.37826 58.3008 7.26758L58.2129 7.14062C58.1868 7.08854 58.1478 7.04948 58.0957 7.02344C58.0371 6.9974 58.0078 6.96159 58.0078 6.91602C58.0078 6.68815 58.0501 6.54167 58.1348 6.47656C58.2129 6.41146 58.3138 6.37891 58.4375 6.37891C58.5352 6.37891 58.6296 6.39518 58.7207 6.42773C58.8184 6.46029 58.9193 6.50586 59.0234 6.56445C59.043 6.56445 59.082 6.5612 59.1406 6.55469C59.1992 6.54818 59.2676 6.54492 59.3457 6.54492C59.4173 6.54492 59.4857 6.54818 59.5508 6.55469C59.6224 6.5612 59.6712 6.56445 59.6973 6.56445L59.9512 6.66211H60.2051C60.2116 6.66211 60.2376 6.65885 60.2832 6.65234C60.3353 6.63932 60.3874 6.62956 60.4395 6.62305C60.498 6.61003 60.5501 6.60026 60.5957 6.59375C60.6413 6.58073 60.6706 6.57096 60.6836 6.56445C60.7227 6.54492 60.7747 6.52865 60.8398 6.51562C60.9115 6.49609 60.9798 6.47982 61.0449 6.4668C61.11 6.45378 61.1654 6.44401 61.2109 6.4375C61.263 6.43099 61.2956 6.42773 61.3086 6.42773H61.748L62.0117 6.37891C62.0703 6.37891 62.1387 6.39193 62.2168 6.41797C62.3014 6.4375 62.3763 6.4668 62.4414 6.50586C62.513 6.54492 62.5716 6.59049 62.6172 6.64258C62.6693 6.68815 62.6953 6.73372 62.6953 6.7793C62.6953 6.83138 62.6888 6.90951 62.6758 7.01367C62.6628 7.11133 62.6335 7.1862 62.5879 7.23828C62.4837 7.34896 62.373 7.42708 62.2559 7.47266C62.1452 7.51823 62.0638 7.54753 62.0117 7.56055L61.8457 7.60938C61.8001 7.62891 61.748 7.63542 61.6895 7.62891C61.6374 7.61589 61.5885 7.63216 61.543 7.67773C61.5495 7.72982 61.5625 7.79492 61.582 7.87305C61.6016 7.94466 61.6243 8.01628 61.6504 8.08789C61.6764 8.15951 61.6992 8.22461 61.7188 8.2832C61.7383 8.33529 61.748 8.36458 61.748 8.37109C61.7546 8.4362 61.7708 8.49479 61.7969 8.54688C61.8294 8.59896 61.862 8.65104 61.8945 8.70312C61.9271 8.75521 61.9596 8.80729 61.9922 8.85938C62.0247 8.91146 62.0508 8.9668 62.0703 9.02539L62.1875 9.65039C62.2005 9.74154 62.2331 9.82943 62.2852 9.91406C62.3372 9.99219 62.3926 10.0703 62.4512 10.1484C62.5098 10.2201 62.5684 10.2982 62.627 10.3828C62.6855 10.4609 62.7246 10.5456 62.7441 10.6367C62.7441 10.6432 62.7441 10.6725 62.7441 10.7246C62.7507 10.7767 62.7539 10.832 62.7539 10.8906C62.7604 10.9492 62.7669 11.0046 62.7734 11.0566C62.7799 11.1087 62.7865 11.138 62.793 11.1445C62.793 11.151 62.8125 11.1836 62.8516 11.2422C62.8906 11.3008 62.9167 11.3333 62.9297 11.3398C62.9362 11.3529 62.9525 11.3887 62.9785 11.4473C63.0046 11.5059 63.0273 11.5449 63.0469 11.5645L63.1934 11.8672C63.2064 11.9128 63.2292 11.9714 63.2617 12.043C63.2943 12.1081 63.3236 12.1406 63.3496 12.1406C63.3952 12.2122 63.444 12.2643 63.4961 12.2969C63.5547 12.3229 63.6068 12.3359 63.6523 12.3359C63.6849 12.3359 63.7305 12.3229 63.7891 12.2969C63.8477 12.2643 63.8932 12.2122 63.9258 12.1406C63.9453 12.1146 63.9681 12.0885 63.9941 12.0625C64.0462 12.0104 64.0853 11.9746 64.1113 11.9551L64.1309 11.8965C64.1374 11.8835 64.1439 11.8704 64.1504 11.8574C64.1569 11.8444 64.1602 11.8314 64.1602 11.8184C64.2383 11.623 64.3132 11.4245 64.3848 11.2227C64.4564 11.0208 64.528 10.8092 64.5996 10.5879C64.5996 10.5684 64.6061 10.526 64.6191 10.4609C64.6322 10.3893 64.6549 10.3405 64.6875 10.3145C64.6875 10.3079 64.6875 10.2884 64.6875 10.2559C64.694 10.2233 64.6973 10.1875 64.6973 10.1484C64.7038 10.1029 64.7103 10.0638 64.7168 10.0312C64.7233 9.99219 64.7298 9.9694 64.7363 9.96289L64.8828 9.55273C64.8893 9.54622 64.8958 9.52669 64.9023 9.49414C64.9089 9.46159 64.9154 9.42904 64.9219 9.39648C64.9284 9.35742 64.9316 9.32487 64.9316 9.29883C64.9382 9.26628 64.9414 9.24349 64.9414 9.23047C64.9609 9.16536 64.9902 9.10026 65.0293 9.03516C65.0749 8.97005 65.1172 8.9082 65.1562 8.84961C65.1953 8.79102 65.2311 8.73242 65.2637 8.67383C65.2962 8.60872 65.3125 8.54036 65.3125 8.46875C65.2995 8.44271 65.2799 8.4069 65.2539 8.36133C65.2344 8.30924 65.2181 8.27995 65.2051 8.27344V7.86328C65.2051 7.85026 65.179 7.81445 65.127 7.75586C65.0814 7.69727 65.0456 7.66146 65.0195 7.64844C64.9935 7.63542 64.9544 7.61914 64.9023 7.59961C64.8568 7.57357 64.8047 7.55078 64.7461 7.53125C64.6875 7.51172 64.6289 7.49544 64.5703 7.48242C64.5182 7.46289 64.4759 7.44987 64.4434 7.44336C64.3783 7.44336 64.3294 7.43359 64.2969 7.41406C64.2708 7.38802 64.2546 7.375 64.248 7.375L63.9258 7.14062C63.8932 7.04948 63.877 6.97461 63.877 6.91602C63.877 6.83138 63.8932 6.75651 63.9258 6.69141C63.9583 6.61979 63.9974 6.54818 64.043 6.47656C64.1276 6.43099 64.2057 6.40169 64.2773 6.38867C64.3555 6.36914 64.4238 6.35938 64.4824 6.35938C64.541 6.35286 64.5964 6.34635 64.6484 6.33984C64.7005 6.33333 64.7461 6.31706 64.7852 6.29102L65.0195 6.26172C65.0326 6.26172 65.0684 6.26497 65.127 6.27148C65.1921 6.27148 65.2604 6.27474 65.332 6.28125C65.4036 6.28776 65.4688 6.29427 65.5273 6.30078C65.5924 6.30078 65.6315 6.30404 65.6445 6.31055L65.9668 6.37891C66.1165 6.37891 66.25 6.35612 66.3672 6.31055C66.4909 6.26497 66.6276 6.2194 66.7773 6.17383H67.002C67.002 6.16081 67.0312 6.15104 67.0898 6.14453C67.1484 6.13151 67.1908 6.125 67.2168 6.125C67.2168 6.11198 67.2233 6.10547 67.2363 6.10547C67.2559 6.10547 67.2721 6.10547 67.2852 6.10547C67.3438 6.10547 67.4219 6.11849 67.5195 6.14453C67.6237 6.17057 67.7246 6.20638 67.8223 6.25195C67.9199 6.29753 68.0046 6.34961 68.0762 6.4082C68.1478 6.4668 68.1836 6.52865 68.1836 6.59375C68.1836 6.67188 68.1608 6.72721 68.1152 6.75977C68.0697 6.79232 68.0241 6.83464 67.9785 6.88672L67.6074 7.18945C67.5293 7.26107 67.4512 7.31641 67.373 7.35547C67.2949 7.38802 67.2135 7.41406 67.1289 7.43359C67.0508 7.45312 66.9661 7.4694 66.875 7.48242C66.7839 7.49544 66.6895 7.51497 66.5918 7.54102C66.4811 7.71029 66.3867 7.88281 66.3086 8.05859C66.237 8.23438 66.1589 8.4069 66.0742 8.57617C66.0742 8.60872 66.0677 8.65104 66.0547 8.70312C66.0417 8.7487 66.0286 8.77799 66.0156 8.79102C66.0156 8.79753 66.0124 8.81706 66.0059 8.84961C66.0059 8.87565 66.0026 8.9082 65.9961 8.94727C65.9896 8.97982 65.9831 9.01237 65.9766 9.04492C65.9766 9.07747 65.9733 9.09375 65.9668 9.09375C65.9668 9.10677 65.9538 9.12956 65.9277 9.16211C65.9082 9.19466 65.8854 9.23372 65.8594 9.2793C65.8333 9.31836 65.8073 9.35742 65.7812 9.39648C65.7617 9.42904 65.752 9.44857 65.752 9.45508V9.96289C65.7454 9.9694 65.7324 9.99219 65.7129 10.0312C65.6934 10.0638 65.6706 10.1029 65.6445 10.1484C65.625 10.1875 65.6022 10.2233 65.5762 10.2559C65.5566 10.2884 65.5404 10.3079 65.5273 10.3145C65.4362 10.4837 65.3288 10.666 65.2051 10.8613C65.0814 11.0566 64.9935 11.2585 64.9414 11.4668V11.8184C64.9414 11.8314 64.9284 11.8672 64.9023 11.9258C64.8828 11.9779 64.8665 12.0039 64.8535 12.0039C64.7819 12.1406 64.7363 12.2676 64.7168 12.3848C64.6973 12.502 64.6582 12.6159 64.5996 12.7266L64.3164 13.3027C64.2904 13.4329 64.2741 13.5664 64.2676 13.7031C64.2611 13.8398 64.2578 13.9798 64.2578 14.123C64.2578 14.2598 64.2546 14.3965 64.248 14.5332C64.2415 14.6699 64.2285 14.8066 64.209 14.9434C64.196 15.1061 64.1439 15.2656 64.0527 15.4219C63.9616 15.5781 63.8802 15.7279 63.8086 15.8711C63.7956 15.8841 63.776 15.9004 63.75 15.9199C63.7305 15.946 63.7207 15.9622 63.7207 15.9688C63.6947 16.0078 63.6686 16.0697 63.6426 16.1543C63.6296 16.1934 63.6165 16.2357 63.6035 16.2812C63.597 16.3203 63.5905 16.3822 63.584 16.4668C63.5775 16.5514 63.571 16.6393 63.5645 16.7305C63.5645 16.8216 63.5612 16.9062 63.5547 16.9844C63.5547 17.069 63.5547 17.1276 63.5547 17.1602C63.4896 17.2122 63.4408 17.2871 63.4082 17.3848C63.3822 17.4824 63.3594 17.5898 63.3398 17.707C63.3268 17.8242 63.3138 17.9382 63.3008 18.0488C63.2943 18.166 63.278 18.2637 63.252 18.3418L62.9785 18.6934C62.9655 18.7064 62.9525 18.7487 62.9395 18.8203C62.9329 18.8984 62.9297 18.9473 62.9297 18.9668C62.9102 18.9863 62.8874 19.0189 62.8613 19.0645C62.8353 19.1035 62.8027 19.1589 62.7637 19.2305C62.7246 19.3021 62.679 19.3997 62.627 19.5234C62.627 19.5299 62.6204 19.5495 62.6074 19.582C62.5944 19.6211 62.5781 19.6602 62.5586 19.6992C62.5391 19.7448 62.5195 19.7871 62.5 19.8262C62.487 19.8652 62.4772 19.888 62.4707 19.8945C62.4447 19.9857 62.4056 20.0443 62.3535 20.0703C62.3079 20.0964 62.2526 20.1387 62.1875 20.1973C62.1484 20.2298 62.1191 20.2559 62.0996 20.2754C62.0801 20.3014 62.0638 20.3242 62.0508 20.3438C62.0378 20.3633 62.0215 20.3828 62.002 20.4023C61.9889 20.4284 61.9661 20.4609 61.9336 20.5C61.8424 20.6172 61.7383 20.6855 61.6211 20.7051C61.5039 20.7311 61.3802 20.7637 61.25 20.8027L61.0547 20.959C60.9766 20.985 60.9017 20.998 60.8301 20.998C60.7585 21.0046 60.6901 21.0078 60.625 21.0078C60.5013 21.0078 60.3711 20.985 60.2344 20.9395C60.0977 20.9004 59.9707 20.8418 59.8535 20.7637C59.7363 20.6855 59.6387 20.5911 59.5605 20.4805C59.4824 20.3698 59.4434 20.2461 59.4434 20.1094ZM73.0371 14.9043C73.0371 14.8522 73.0697 14.8164 73.1348 14.7969C73.2064 14.7708 73.2585 14.7415 73.291 14.709C73.3626 14.6309 73.444 14.5755 73.5352 14.543C73.6328 14.5104 73.7012 14.4844 73.7402 14.4648C73.7923 14.4323 73.8281 14.3932 73.8477 14.3477C73.8672 14.2956 73.9128 14.2565 73.9844 14.2305L74.2188 14.1523C74.2578 14.1523 74.2904 14.123 74.3164 14.0645C74.3424 14.0059 74.3587 13.9733 74.3652 13.9668C74.3587 13.9342 74.3555 13.8789 74.3555 13.8008C74.3555 13.7227 74.3555 13.6478 74.3555 13.5762C74.3555 13.485 74.3555 13.4036 74.3555 13.332C74.3555 13.2539 74.3587 13.1888 74.3652 13.1367L74.4238 12.8438V11.3398C74.4238 11.3268 74.4271 11.2975 74.4336 11.252C74.4401 11.2064 74.4466 11.1576 74.4531 11.1055C74.4596 11.0534 74.4661 11.0046 74.4727 10.959C74.4792 10.9134 74.4857 10.8841 74.4922 10.8711V10.8027C74.4857 10.7637 74.4792 10.7051 74.4727 10.627C74.4661 10.5423 74.4596 10.4609 74.4531 10.3828C74.4466 10.2982 74.4401 10.2233 74.4336 10.1582C74.4271 10.0931 74.4238 10.054 74.4238 10.041C74.4173 10.0215 74.4108 9.98893 74.4043 9.94336C74.3978 9.89779 74.3913 9.84896 74.3848 9.79688C74.3783 9.74479 74.3717 9.69596 74.3652 9.65039C74.3652 9.60482 74.3652 9.57227 74.3652 9.55273C74.3457 9.46159 74.3132 9.3737 74.2676 9.28906C74.222 9.20443 74.1699 9.1263 74.1113 9.05469C74.0527 8.97656 73.9909 8.90169 73.9258 8.83008C73.8607 8.75195 73.7988 8.67708 73.7402 8.60547C73.7337 8.60547 73.7109 8.58268 73.6719 8.53711C73.6328 8.48503 73.6133 8.45247 73.6133 8.43945L73.0371 7.90234L73.5059 7.42383C73.5189 7.41732 73.5449 7.4043 73.584 7.38477C73.6296 7.36523 73.6751 7.3457 73.7207 7.32617C73.7728 7.30013 73.8216 7.27734 73.8672 7.25781C73.9193 7.23828 73.9583 7.22526 73.9844 7.21875C73.9974 7.20573 74.0234 7.19596 74.0625 7.18945C74.1081 7.17643 74.1536 7.16667 74.1992 7.16016C74.2513 7.15365 74.2969 7.15039 74.3359 7.15039C74.3815 7.14388 74.4108 7.14062 74.4238 7.14062C74.5475 7.10156 74.6582 7.04948 74.7559 6.98438C74.86 6.91276 74.9609 6.8444 75.0586 6.7793C75.1562 6.70768 75.2539 6.64583 75.3516 6.59375C75.4557 6.54167 75.5729 6.51562 75.7031 6.51562H75.8594C75.8659 6.52214 75.9017 6.55794 75.9668 6.62305C76.0319 6.68164 76.0807 6.72396 76.1133 6.75C76.1589 6.82161 76.1816 6.91276 76.1816 7.02344C76.1816 7.1276 76.1849 7.23177 76.1914 7.33594C76.1979 7.43359 76.2207 7.51823 76.2598 7.58984C76.2988 7.66146 76.3835 7.69727 76.5137 7.69727C76.5332 7.69727 76.5527 7.69727 76.5723 7.69727C76.5983 7.69727 76.6113 7.69076 76.6113 7.67773C76.6374 7.67122 76.6732 7.6582 76.7188 7.63867C76.7643 7.61263 76.8099 7.58333 76.8555 7.55078C76.9076 7.51823 76.9531 7.48568 76.9922 7.45312C77.0378 7.42057 77.0703 7.39453 77.0898 7.375L77.4902 7.07227C77.5033 7.05924 77.5456 7.02995 77.6172 6.98438C77.6888 6.93229 77.7376 6.89323 77.7637 6.86719C77.7702 6.86719 77.7962 6.86719 77.8418 6.86719C77.8874 6.86068 77.9329 6.85742 77.9785 6.85742C78.0306 6.85091 78.0794 6.8444 78.125 6.83789C78.1706 6.83138 78.2031 6.82487 78.2227 6.81836C78.2292 6.81836 78.2487 6.81185 78.2812 6.79883C78.3203 6.78581 78.3594 6.77279 78.3984 6.75977C78.444 6.74674 78.4831 6.73372 78.5156 6.7207C78.5482 6.70768 78.5677 6.70117 78.5742 6.70117H78.6816C78.8314 6.70117 78.9518 6.74674 79.043 6.83789C79.1406 6.92904 79.2285 7.02995 79.3066 7.14062C79.3522 7.19922 79.3783 7.28385 79.3848 7.39453C79.3978 7.4987 79.4206 7.57682 79.4531 7.62891C79.4531 7.64844 79.4629 7.66797 79.4824 7.6875L79.5215 7.72656C79.5215 8.03906 79.4759 8.31901 79.3848 8.56641C79.3001 8.80729 79.1536 9.0026 78.9453 9.15234C78.8867 9.16536 78.8184 9.17839 78.7402 9.19141C78.6621 9.19792 78.597 9.20117 78.5449 9.20117C78.4082 9.20117 78.3073 9.19466 78.2422 9.18164C78.1771 9.16211 78.1283 9.13607 78.0957 9.10352C78.0632 9.07096 78.0339 9.02865 78.0078 8.97656C77.9883 8.92448 77.9525 8.86263 77.9004 8.79102C77.8548 8.73242 77.7995 8.68685 77.7344 8.6543C77.6758 8.61523 77.6172 8.58919 77.5586 8.57617C77.5 8.55664 77.4447 8.54362 77.3926 8.53711C77.347 8.5306 77.3177 8.52734 77.3047 8.52734L76.8848 8.45898L76.5332 8.55664L76.416 8.71289C76.3835 8.7194 76.3379 8.75195 76.2793 8.81055C76.2207 8.86263 76.1621 8.92448 76.1035 8.99609C76.0514 9.0612 76.0059 9.13281 75.9668 9.21094C75.9277 9.28255 75.9082 9.34115 75.9082 9.38672L75.8594 10.0898L75.9082 10.3633V10.8711C75.9082 10.8841 75.9115 10.9232 75.918 10.9883C75.931 11.0469 75.944 11.0924 75.957 11.125L75.8887 12.0039L75.957 12.3359C75.957 12.3815 75.944 12.4271 75.918 12.4727C75.8984 12.5182 75.8887 12.5768 75.8887 12.6484L75.957 12.9805L75.8887 13.3418C75.8887 13.3483 75.8887 13.3581 75.8887 13.3711C75.8887 13.3841 75.8952 13.3906 75.9082 13.3906C75.9147 13.4297 75.9342 13.485 75.9668 13.5566C76.0059 13.6283 76.0449 13.7031 76.084 13.7812C76.1296 13.8594 76.1686 13.9342 76.2012 14.0059C76.2402 14.071 76.2663 14.1198 76.2793 14.1523C76.2793 14.1589 76.2858 14.1719 76.2988 14.1914C76.3118 14.2109 76.3281 14.2207 76.3477 14.2207C76.4062 14.2533 76.4616 14.2956 76.5137 14.3477C76.5723 14.3997 76.6406 14.4388 76.7188 14.4648C76.7643 14.4844 76.8229 14.5039 76.8945 14.5234C76.9661 14.5365 77.041 14.5527 77.1191 14.5723C77.2038 14.5918 77.2852 14.6146 77.3633 14.6406C77.4479 14.6667 77.526 14.6992 77.5977 14.7383C77.6367 14.7904 77.6725 14.8522 77.7051 14.9238C77.7441 14.9954 77.7637 15.0736 77.7637 15.1582C77.7637 15.2298 77.7507 15.2819 77.7246 15.3145C77.7051 15.347 77.6725 15.3796 77.627 15.4121C77.5879 15.4382 77.5228 15.4512 77.4316 15.4512L77.1191 15.4805C77.0085 15.4935 76.9076 15.5 76.8164 15.5C76.7318 15.5 76.6602 15.5 76.6016 15.5C76.5495 15.5 76.4909 15.4935 76.4258 15.4805C76.3672 15.4609 76.3021 15.4512 76.2305 15.4512C76.0482 15.4512 75.8757 15.474 75.7129 15.5195C75.5501 15.5716 75.3841 15.5977 75.2148 15.5977L74.7754 15.4512L74.1504 15.5977H73.9844L73.8477 15.5C73.8346 15.5 73.7988 15.4967 73.7402 15.4902C73.6816 15.4772 73.597 15.4642 73.4863 15.4512C73.4603 15.4512 73.4342 15.4382 73.4082 15.4121C73.3887 15.4056 73.3561 15.3958 73.3105 15.3828C73.2715 15.3698 73.2064 15.3405 73.1152 15.2949C73.0632 15.2233 73.0371 15.1549 73.0371 15.0898V15.0605V14.9043ZM80.8594 15.5C80.7812 15.5 80.7194 15.513 80.6738 15.5391C80.6348 15.5716 80.5924 15.5879 80.5469 15.5879C80.5208 15.5879 80.4883 15.5749 80.4492 15.5488C80.4167 15.5228 80.3646 15.4902 80.293 15.4512C80.2799 15.4447 80.2702 15.4284 80.2637 15.4023C80.2637 15.3698 80.2572 15.334 80.2441 15.2949C80.2311 15.2559 80.2214 15.207 80.2148 15.1484C80.2148 15.1419 80.2214 15.1257 80.2344 15.0996C80.2539 15.0671 80.2734 15.0345 80.293 15.002C80.3125 14.9629 80.332 14.9271 80.3516 14.8945C80.3711 14.862 80.3874 14.8392 80.4004 14.8262L80.5859 14.7188H80.8008C80.9505 14.7188 81.084 14.709 81.2012 14.6895C81.3249 14.6634 81.4225 14.5885 81.4941 14.4648C81.5202 14.2435 81.5397 14.0319 81.5527 13.8301C81.5658 13.6283 81.5983 13.4297 81.6504 13.2344L81.7676 12.7754V11.8672L81.8164 10.9883V10.4121C81.8164 10.3991 81.8099 10.3665 81.7969 10.3145C81.7839 10.2559 81.7708 10.194 81.7578 10.1289C81.7448 10.0573 81.7318 9.99219 81.7188 9.93359C81.7057 9.86849 81.6992 9.81966 81.6992 9.78711V8.85938C81.6732 8.78776 81.6309 8.69987 81.5723 8.5957C81.5137 8.49154 81.4551 8.41667 81.3965 8.37109L81.0938 8.27344C80.9831 8.19531 80.8822 8.11068 80.791 8.01953C80.7064 7.92839 80.638 7.81445 80.5859 7.67773C80.5859 7.60612 80.6022 7.55078 80.6348 7.51172C80.6673 7.47266 80.7096 7.44336 80.7617 7.42383C80.8138 7.4043 80.8691 7.38802 80.9277 7.375C80.9863 7.36198 81.0417 7.34896 81.0938 7.33594L81.8164 6.96484C81.875 6.9388 81.9238 6.91927 81.9629 6.90625C82.0085 6.88672 82.0508 6.86719 82.0898 6.84766C82.1289 6.82812 82.1647 6.80534 82.1973 6.7793C82.2363 6.75326 82.2786 6.71419 82.3242 6.66211L82.6074 6.64258C82.64 6.64258 82.6888 6.64583 82.7539 6.65234C82.8255 6.65885 82.8678 6.66211 82.8809 6.66211C82.9004 6.66211 82.9329 6.66536 82.9785 6.67188C83.0241 6.67839 83.0729 6.68815 83.125 6.70117C83.1771 6.71419 83.2259 6.72721 83.2715 6.74023C83.3171 6.75326 83.3496 6.76302 83.3691 6.76953C83.4277 6.79557 83.4635 6.85091 83.4766 6.93555C83.4961 7.01367 83.5059 7.08529 83.5059 7.15039V7.46289L83.4375 7.69727C83.4049 8.12044 83.3887 8.53711 83.3887 8.94727C83.3887 9.35742 83.3822 9.7806 83.3691 10.2168L83.3203 10.5684C83.3138 10.5749 83.3073 10.5977 83.3008 10.6367C83.3008 10.6758 83.3008 10.7214 83.3008 10.7734C83.3008 10.8255 83.3008 10.8776 83.3008 10.9297C83.3008 10.9753 83.3008 11.0111 83.3008 11.0371C83.3008 11.0827 83.3008 11.1348 83.3008 11.1934C83.3008 11.252 83.3008 11.3073 83.3008 11.3594C83.3008 11.4115 83.3008 11.457 83.3008 11.4961C83.3073 11.5286 83.3138 11.5449 83.3203 11.5449C83.3203 11.5645 83.3268 11.61 83.3398 11.6816C83.3529 11.7467 83.3626 11.7858 83.3691 11.7988V12.0039C83.3691 12.0234 83.3659 12.0755 83.3594 12.1602C83.3529 12.2448 83.3464 12.3424 83.3398 12.4531C83.3333 12.5573 83.3268 12.6615 83.3203 12.7656C83.3203 12.8633 83.3203 12.9349 83.3203 12.9805C83.3203 13.0391 83.3236 13.1335 83.3301 13.2637C83.3431 13.3874 83.3561 13.5208 83.3691 13.6641C83.3887 13.8073 83.4049 13.944 83.418 14.0742C83.431 14.1979 83.4375 14.2858 83.4375 14.3379C83.4375 14.4095 83.4733 14.4681 83.5449 14.5137C83.623 14.5527 83.6849 14.5788 83.7305 14.5918C83.75 14.5918 83.7891 14.5951 83.8477 14.6016C83.9128 14.6081 83.9811 14.6146 84.0527 14.6211C84.1243 14.6276 84.1895 14.6341 84.248 14.6406C84.3132 14.6406 84.3587 14.6406 84.3848 14.6406C84.4303 14.6927 84.4661 14.748 84.4922 14.8066C84.5247 14.8652 84.541 14.9401 84.541 15.0312C84.541 15.1224 84.5312 15.2103 84.5117 15.2949C84.4987 15.3796 84.4629 15.4382 84.4043 15.4707C84.3262 15.5358 84.2383 15.5716 84.1406 15.5781C84.0495 15.5911 83.9518 15.5977 83.8477 15.5977H83.6719L83.4375 15.5H82.2363C82.2298 15.5 82.1875 15.4935 82.1094 15.4805C82.0312 15.4609 81.9792 15.4512 81.9531 15.4512H81.6797L80.8594 15.5ZM81.1426 2.56055L81.4453 2.25781L81.7676 2.00391L81.8652 1.79883C81.9434 1.74023 82.0312 1.70768 82.1289 1.70117C82.2266 1.68815 82.3145 1.68164 82.3926 1.68164H82.4902C82.4967 1.68815 82.5163 1.69792 82.5488 1.71094C82.5814 1.72396 82.6139 1.73698 82.6465 1.75C82.679 1.76302 82.7083 1.77604 82.7344 1.78906C82.7669 1.79557 82.7897 1.79883 82.8027 1.79883C82.8288 1.81185 82.8678 1.82487 82.9199 1.83789C82.9785 1.8444 83.0371 1.85417 83.0957 1.86719C83.1543 1.8737 83.2096 1.88021 83.2617 1.88672C83.3138 1.88672 83.3496 1.88672 83.3691 1.88672C83.3952 1.89323 83.4245 1.93229 83.457 2.00391C83.4896 2.07552 83.5156 2.1569 83.5352 2.24805C83.5612 2.33268 83.5807 2.41732 83.5938 2.50195C83.6133 2.58008 83.623 2.63216 83.623 2.6582C83.623 2.82096 83.6035 2.97396 83.5645 3.11719C83.5319 3.25391 83.4505 3.3776 83.3203 3.48828C83.3138 3.49479 83.2943 3.50456 83.2617 3.51758C83.2357 3.52409 83.2064 3.53385 83.1738 3.54688C83.1413 3.55339 83.1087 3.56315 83.0762 3.57617C83.0501 3.58268 83.0371 3.58594 83.0371 3.58594C83.0306 3.59896 83.0143 3.62174 82.9883 3.6543C82.9622 3.68034 82.9329 3.70964 82.9004 3.74219C82.8678 3.76823 82.8353 3.79427 82.8027 3.82031C82.7702 3.83984 82.7507 3.85286 82.7441 3.85938C82.7051 3.90495 82.6465 3.93099 82.5684 3.9375C82.4967 3.94401 82.4284 3.94727 82.3633 3.94727H81.9824C81.9108 3.94727 81.849 3.94401 81.7969 3.9375C81.7448 3.92448 81.6732 3.88216 81.582 3.81055C81.4714 3.64779 81.3672 3.49805 81.2695 3.36133C81.1719 3.22461 81.123 3.05208 81.123 2.84375L81.1426 2.56055ZM91.6504 14.9043C91.4746 14.9564 91.3021 15.015 91.1328 15.0801C90.9635 15.1452 90.7943 15.207 90.625 15.2656C90.4557 15.3242 90.2832 15.3763 90.1074 15.4219C89.9316 15.4609 89.7526 15.4805 89.5703 15.4805H89.4531C89.3359 15.4805 89.196 15.4577 89.0332 15.4121C88.877 15.3665 88.7305 15.3047 88.5938 15.2266C88.0859 15.1549 87.6562 14.9922 87.3047 14.7383C86.9531 14.4844 86.6504 14.1816 86.3965 13.8301C86.3379 13.7389 86.2923 13.638 86.2598 13.5273C86.2337 13.4102 86.2044 13.2962 86.1719 13.1855L85.791 12.4629C85.791 12.4499 85.7878 12.4271 85.7812 12.3945C85.7747 12.362 85.765 12.3066 85.752 12.2285C85.7454 12.1439 85.7389 12.0267 85.7324 11.877C85.7259 11.7207 85.7227 11.5156 85.7227 11.2617C85.7812 11.1901 85.8171 11.125 85.8301 11.0664C85.8496 11.0013 85.8594 10.9297 85.8594 10.8516L85.8398 10.4805L85.8594 10.334L85.9766 10.0215C85.9961 9.95638 86.0124 9.87174 86.0254 9.76758C86.0384 9.66341 86.0482 9.55599 86.0547 9.44531C86.0677 9.33464 86.0807 9.23047 86.0938 9.13281C86.1133 9.02865 86.1393 8.94401 86.1719 8.87891C86.2044 8.80078 86.2467 8.75195 86.2988 8.73242C86.3574 8.71289 86.4193 8.67708 86.4844 8.625L86.7383 8.32227C86.9271 8.04883 87.1126 7.82747 87.2949 7.6582C87.4837 7.48893 87.6823 7.35221 87.8906 7.24805C88.1055 7.13737 88.3366 7.04948 88.584 6.98438C88.8379 6.91276 89.1211 6.84115 89.4336 6.76953C89.6224 6.71745 89.8112 6.66536 90 6.61328C90.1953 6.55469 90.3906 6.52539 90.5859 6.52539C90.6706 6.52539 90.7454 6.54818 90.8105 6.59375C90.8822 6.63932 90.9473 6.66211 91.0059 6.66211C91.0579 6.66211 91.1361 6.6556 91.2402 6.64258C91.3444 6.62305 91.4518 6.60026 91.5625 6.57422C91.6732 6.54167 91.7708 6.50586 91.8555 6.4668C91.9466 6.42773 92.002 6.38542 92.0215 6.33984C92.1257 6.0013 92.2005 5.64648 92.2461 5.27539C92.2982 4.9043 92.3242 4.53971 92.3242 4.18164C92.3242 4.09049 92.3145 3.98633 92.2949 3.86914C92.2819 3.74544 92.2754 3.625 92.2754 3.50781C92.2754 3.4362 92.2819 3.37109 92.2949 3.3125C92.3145 3.2474 92.3242 3.17578 92.3242 3.09766C92.3242 3 92.3014 2.92188 92.2559 2.86328C92.2168 2.79818 92.1647 2.74284 92.0996 2.69727C92.0345 2.64518 91.9596 2.59635 91.875 2.55078C91.7904 2.4987 91.709 2.4401 91.6309 2.375C91.5853 2.34245 91.5462 2.3099 91.5137 2.27734C91.4811 2.24479 91.4453 2.21224 91.4062 2.17969C91.3737 2.14714 91.3314 2.11133 91.2793 2.07227C91.2337 2.0332 91.1719 1.98763 91.0938 1.93555C91.0677 1.88997 91.0384 1.8444 91.0059 1.79883C90.9733 1.74674 90.957 1.69466 90.957 1.64258C90.957 1.58398 90.9766 1.52865 91.0156 1.47656C91.0547 1.42448 91.097 1.38542 91.1426 1.35938C91.2402 1.29427 91.3574 1.23893 91.4941 1.19336C91.6309 1.14128 91.7676 1.0957 91.9043 1.05664C92.0475 1.01758 92.1777 0.985026 92.2949 0.958984C92.4186 0.932943 92.513 0.910156 92.5781 0.890625H93.7109C93.8216 0.890625 93.9225 0.916667 94.0137 0.96875C94.1048 1.02083 94.1829 1.08594 94.248 1.16406C94.3197 1.24219 94.375 1.33008 94.4141 1.42773C94.4531 1.52539 94.4727 1.61979 94.4727 1.71094C94.4727 1.9974 94.4401 2.26758 94.375 2.52148C94.3164 2.76888 94.2871 3.01628 94.2871 3.26367V4.14258L94.0332 5.04102C94.0332 5.19076 94.0527 5.33398 94.0918 5.4707C94.1309 5.60742 94.1504 5.73438 94.1504 5.85156C94.1504 5.98828 94.1211 6.11523 94.0625 6.23242C94.0104 6.3431 93.9844 6.46354 93.9844 6.59375L93.916 7.42383L94.0332 8.09766L93.916 9.13281L94.0332 11.0078L93.8281 12.3262V13.0488C93.8281 13.2246 93.8379 13.4069 93.8574 13.5957C93.8835 13.778 93.929 13.944 93.9941 14.0938C94.0658 14.237 94.1634 14.3574 94.2871 14.4551C94.4108 14.5462 94.5736 14.5918 94.7754 14.5918C94.9121 14.5918 95.0391 14.582 95.1562 14.5625C95.2799 14.543 95.3841 14.5332 95.4688 14.5332C95.5729 14.5332 95.6413 14.5723 95.6738 14.6504C95.7064 14.722 95.7227 14.8066 95.7227 14.9043C95.7227 15.0475 95.6901 15.1615 95.625 15.2461C95.5664 15.3307 95.485 15.3958 95.3809 15.4414C95.2832 15.487 95.166 15.5163 95.0293 15.5293C94.8991 15.5423 94.7624 15.5488 94.6191 15.5488L94.0332 15.5L93.457 15.5879C93.3659 15.5879 93.2747 15.6107 93.1836 15.6562C93.0924 15.7083 93.0046 15.7344 92.9199 15.7344C92.627 15.7344 92.4056 15.6595 92.2559 15.5098C92.1061 15.36 91.9889 15.1582 91.9043 14.9043H91.6504ZM87.5586 10.7051C87.5586 11.0957 87.5879 11.4603 87.6465 11.7988C87.7051 12.1374 87.8027 12.4499 87.9395 12.7363C88.0762 13.0163 88.2552 13.2669 88.4766 13.4883C88.6979 13.7031 88.9714 13.8822 89.2969 14.0254C89.4922 14.123 89.6875 14.224 89.8828 14.3281C90.0781 14.4323 90.2962 14.4844 90.5371 14.4844C90.5892 14.4844 90.6934 14.4746 90.8496 14.4551C91.0059 14.4355 91.1654 14.4062 91.3281 14.3672C91.4974 14.3216 91.6504 14.2663 91.7871 14.2012C91.9238 14.1361 92.002 14.0579 92.0215 13.9668C92.0345 13.9342 92.041 13.9082 92.041 13.8887C92.041 13.8691 92.041 13.8431 92.041 13.8105C92.041 13.778 92.0378 13.7552 92.0312 13.7422C92.0247 13.7227 92.0215 13.6999 92.0215 13.6738C92.0215 13.6087 92.0378 13.5371 92.0703 13.459C92.0833 13.446 92.1061 13.4199 92.1387 13.3809C92.1777 13.3353 92.2135 13.2865 92.2461 13.2344C92.2852 13.1758 92.3177 13.1172 92.3438 13.0586C92.3763 12.9935 92.3926 12.9349 92.3926 12.8828C92.3926 12.7461 92.373 12.6061 92.334 12.4629C92.2949 12.3197 92.2754 12.1667 92.2754 12.0039L92.2559 11.6621C92.2559 11.6035 92.2624 11.5449 92.2754 11.4863C92.2884 11.4212 92.3112 11.3691 92.3438 11.3301V9.23047L92.2754 9.04492L92.1191 8.32227C92.1061 8.26367 92.054 8.18555 91.9629 8.08789C91.8717 7.98372 91.7643 7.87956 91.6406 7.77539C91.5234 7.67122 91.403 7.58008 91.2793 7.50195C91.1621 7.41732 91.071 7.36849 91.0059 7.35547C90.9473 7.36849 90.8887 7.375 90.8301 7.375C90.778 7.375 90.7292 7.375 90.6836 7.375H89.6875C89.4661 7.375 89.2611 7.43359 89.0723 7.55078C88.8835 7.66797 88.7077 7.82422 88.5449 8.01953C88.3887 8.20833 88.2487 8.42318 88.125 8.66406C88.0013 8.90495 87.8971 9.14909 87.8125 9.39648C87.7344 9.64388 87.6725 9.88477 87.627 10.1191C87.5814 10.347 87.5586 10.5423 87.5586 10.7051ZM96.3281 11.2227C96.3281 11.1901 96.3346 11.1283 96.3477 11.0371C96.3607 10.9395 96.3737 10.8385 96.3867 10.7344C96.4062 10.6237 96.4193 10.5195 96.4258 10.4219C96.4388 10.3242 96.4453 10.2591 96.4453 10.2266C96.4714 9.91406 96.5397 9.59505 96.6504 9.26953C96.7676 8.94401 96.9141 8.63151 97.0898 8.33203C97.2656 8.02604 97.4674 7.74609 97.6953 7.49219C97.9297 7.23828 98.1836 7.02344 98.457 6.84766C98.4635 6.83464 98.4961 6.81185 98.5547 6.7793C98.6198 6.74674 98.6882 6.71419 98.7598 6.68164C98.8314 6.64909 98.8997 6.61654 98.9648 6.58398C99.0299 6.55143 99.069 6.52865 99.082 6.51562C99.1276 6.49609 99.1862 6.46354 99.2578 6.41797C99.3359 6.36589 99.4141 6.31706 99.4922 6.27148C99.5703 6.2194 99.6484 6.17383 99.7266 6.13477C99.8047 6.0957 99.8763 6.07617 99.9414 6.07617C100 6.07617 100.046 6.08268 100.078 6.0957C100.117 6.10872 100.163 6.12826 100.215 6.1543C100.326 6.14128 100.43 6.13151 100.527 6.125C100.632 6.11198 100.736 6.10547 100.84 6.10547C100.951 6.10547 101.055 6.11198 101.152 6.125C101.25 6.13151 101.354 6.14128 101.465 6.1543C101.465 6.1543 101.478 6.16081 101.504 6.17383C101.53 6.18034 101.559 6.1901 101.592 6.20312C101.624 6.21615 101.657 6.22917 101.689 6.24219C101.722 6.25521 101.748 6.26497 101.768 6.27148C101.787 6.27799 101.826 6.29753 101.885 6.33008C101.943 6.35612 102.008 6.38867 102.08 6.42773C102.152 6.4668 102.22 6.5026 102.285 6.53516C102.35 6.5612 102.396 6.57747 102.422 6.58398C102.422 6.59049 102.445 6.60026 102.49 6.61328C102.536 6.6263 102.565 6.63281 102.578 6.63281L102.969 6.84766L103.848 7.64844C103.874 7.68099 103.913 7.76888 103.965 7.91211C104.023 8.04883 104.079 8.20182 104.131 8.37109C104.189 8.53385 104.238 8.6901 104.277 8.83984C104.323 8.98958 104.346 9.08724 104.346 9.13281C104.346 9.22396 104.32 9.29883 104.268 9.35742C104.215 9.40951 104.154 9.45508 104.082 9.49414C104.01 9.52669 103.932 9.55273 103.848 9.57227C103.77 9.58529 103.701 9.59505 103.643 9.60156H103.604C103.538 9.60807 103.431 9.61458 103.281 9.62109C103.138 9.6276 102.985 9.63411 102.822 9.64062C102.666 9.64062 102.516 9.64388 102.373 9.65039C102.236 9.65039 102.142 9.65039 102.09 9.65039C102.018 9.68294 101.953 9.70247 101.895 9.70898C101.842 9.71549 101.787 9.71875 101.729 9.71875L101.035 9.65039C100.905 9.65039 100.768 9.67318 100.625 9.71875C100.488 9.76432 100.355 9.78711 100.225 9.78711C100.14 9.78711 100.055 9.75781 99.9707 9.69922C99.8926 9.63411 99.8047 9.60156 99.707 9.60156C99.694 9.60156 99.6582 9.61784 99.5996 9.65039C99.5475 9.67643 99.5085 9.68945 99.4824 9.68945L98.7402 9.64062C98.6361 9.64062 98.5384 9.66016 98.4473 9.69922C98.3561 9.73828 98.252 9.80664 98.1348 9.9043C98.1152 10.0736 98.1022 10.2233 98.0957 10.3535C98.0892 10.4772 98.0859 10.6172 98.0859 10.7734C98.0859 10.9102 98.0924 11.0208 98.1055 11.1055C98.125 11.1901 98.151 11.2715 98.1836 11.3496C98.2161 11.4212 98.2552 11.4961 98.3008 11.5742C98.3464 11.6458 98.3984 11.737 98.457 11.8477L98.5547 12.0332C98.724 12.4043 98.9421 12.7038 99.209 12.9316C99.4759 13.1595 99.821 13.3385 100.244 13.4688C100.244 13.5013 100.29 13.5339 100.381 13.5664C100.479 13.5924 100.586 13.612 100.703 13.625C100.84 13.651 100.996 13.6673 101.172 13.6738C101.387 13.6738 101.608 13.6608 101.836 13.6348C102.064 13.6087 102.285 13.5664 102.5 13.5078C102.715 13.4492 102.917 13.3711 103.105 13.2734C103.301 13.1758 103.467 13.0553 103.604 12.9121H103.76C103.838 12.9121 103.89 12.9251 103.916 12.9512C103.949 12.9707 103.981 13.0326 104.014 13.1367C103.994 13.3255 103.965 13.4948 103.926 13.6445C103.893 13.7878 103.844 13.918 103.779 14.0352C103.721 14.1523 103.643 14.263 103.545 14.3672C103.447 14.4648 103.32 14.5658 103.164 14.6699C103.112 14.709 103.063 14.7383 103.018 14.7578C102.972 14.7708 102.93 14.7839 102.891 14.7969C102.852 14.8099 102.809 14.8294 102.764 14.8555C102.725 14.8815 102.679 14.9271 102.627 14.9922L101.582 15.5195L101.465 15.5L100.732 15.6172C100.186 15.6172 99.694 15.5391 99.2578 15.3828C98.8216 15.2266 98.431 15.0052 98.0859 14.7188C97.7474 14.4258 97.4512 14.0775 97.1973 13.6738C96.9499 13.2702 96.7383 12.8242 96.5625 12.3359C96.5039 12.1602 96.4681 11.9811 96.4551 11.7988C96.4421 11.61 96.3997 11.418 96.3281 11.2227ZM98.252 8.55664C98.252 8.58919 98.2552 8.63802 98.2617 8.70312C98.2747 8.76823 98.291 8.83333 98.3105 8.89844C98.3301 8.96354 98.3529 9.02214 98.3789 9.07422C98.4049 9.1263 98.431 9.1556 98.457 9.16211H98.7598L100.059 8.95703L100.889 9.02539C101.032 9.02539 101.159 9.01237 101.27 8.98633C101.387 8.96029 101.514 8.93099 101.65 8.89844C101.774 8.87891 101.878 8.86263 101.963 8.84961C102.054 8.83008 102.126 8.79753 102.178 8.75195C102.236 8.70638 102.279 8.64779 102.305 8.57617C102.331 8.49805 102.344 8.39062 102.344 8.25391C102.344 8.02604 102.282 7.82747 102.158 7.6582C102.035 7.48893 101.878 7.34896 101.689 7.23828C101.507 7.12109 101.305 7.03646 101.084 6.98438C100.869 6.92578 100.667 6.89648 100.479 6.89648C100.433 6.89648 100.368 6.90951 100.283 6.93555C100.199 6.95508 100.101 6.98438 99.9902 7.02344C99.8861 7.05599 99.7754 7.09505 99.6582 7.14062C99.5475 7.17969 99.4434 7.22526 99.3457 7.27734C99.2546 7.32292 99.1732 7.36849 99.1016 7.41406C99.0299 7.45312 98.9844 7.48893 98.9648 7.52148L98.7598 7.96094C98.7207 8.00651 98.6719 8.04883 98.6133 8.08789C98.5547 8.12695 98.4961 8.16927 98.4375 8.21484C98.3854 8.26042 98.3398 8.3125 98.3008 8.37109C98.2682 8.42318 98.252 8.48503 98.252 8.55664ZM105.479 14.9043C105.479 14.8522 105.511 14.8164 105.576 14.7969C105.648 14.7708 105.7 14.7415 105.732 14.709C105.804 14.6309 105.885 14.5755 105.977 14.543C106.074 14.5104 106.143 14.4844 106.182 14.4648C106.234 14.4323 106.27 14.3932 106.289 14.3477C106.309 14.2956 106.354 14.2565 106.426 14.2305L106.66 14.1523C106.699 14.1523 106.732 14.123 106.758 14.0645C106.784 14.0059 106.8 13.9733 106.807 13.9668C106.8 13.9342 106.797 13.8789 106.797 13.8008C106.797 13.7227 106.797 13.6478 106.797 13.5762C106.797 13.485 106.797 13.4036 106.797 13.332C106.797 13.2539 106.8 13.1888 106.807 13.1367L106.865 12.8438V11.3398C106.865 11.3268 106.868 11.2975 106.875 11.252C106.882 11.2064 106.888 11.1576 106.895 11.1055C106.901 11.0534 106.908 11.0046 106.914 10.959C106.921 10.9134 106.927 10.8841 106.934 10.8711V10.8027C106.927 10.7637 106.921 10.7051 106.914 10.627C106.908 10.5423 106.901 10.4609 106.895 10.3828C106.888 10.2982 106.882 10.2233 106.875 10.1582C106.868 10.0931 106.865 10.054 106.865 10.041C106.859 10.0215 106.852 9.98893 106.846 9.94336C106.839 9.89779 106.833 9.84896 106.826 9.79688C106.82 9.74479 106.813 9.69596 106.807 9.65039C106.807 9.60482 106.807 9.57227 106.807 9.55273C106.787 9.46159 106.755 9.3737 106.709 9.28906C106.663 9.20443 106.611 9.1263 106.553 9.05469C106.494 8.97656 106.432 8.90169 106.367 8.83008C106.302 8.75195 106.24 8.67708 106.182 8.60547C106.175 8.60547 106.152 8.58268 106.113 8.53711C106.074 8.48503 106.055 8.45247 106.055 8.43945L105.479 7.90234L105.947 7.42383C105.96 7.41732 105.986 7.4043 106.025 7.38477C106.071 7.36523 106.117 7.3457 106.162 7.32617C106.214 7.30013 106.263 7.27734 106.309 7.25781C106.361 7.23828 106.4 7.22526 106.426 7.21875C106.439 7.20573 106.465 7.19596 106.504 7.18945C106.549 7.17643 106.595 7.16667 106.641 7.16016C106.693 7.15365 106.738 7.15039 106.777 7.15039C106.823 7.14388 106.852 7.14062 106.865 7.14062C106.989 7.10156 107.1 7.04948 107.197 6.98438C107.301 6.91276 107.402 6.8444 107.5 6.7793C107.598 6.70768 107.695 6.64583 107.793 6.59375C107.897 6.54167 108.014 6.51562 108.145 6.51562H108.301C108.307 6.52214 108.343 6.55794 108.408 6.62305C108.473 6.68164 108.522 6.72396 108.555 6.75C108.6 6.82161 108.623 6.91276 108.623 7.02344C108.623 7.1276 108.626 7.23177 108.633 7.33594C108.639 7.43359 108.662 7.51823 108.701 7.58984C108.74 7.66146 108.825 7.69727 108.955 7.69727C108.975 7.69727 108.994 7.69727 109.014 7.69727C109.04 7.69727 109.053 7.69076 109.053 7.67773C109.079 7.67122 109.115 7.6582 109.16 7.63867C109.206 7.61263 109.251 7.58333 109.297 7.55078C109.349 7.51823 109.395 7.48568 109.434 7.45312C109.479 7.42057 109.512 7.39453 109.531 7.375L109.932 7.07227C109.945 7.05924 109.987 7.02995 110.059 6.98438C110.13 6.93229 110.179 6.89323 110.205 6.86719C110.212 6.86719 110.238 6.86719 110.283 6.86719C110.329 6.86068 110.374 6.85742 110.42 6.85742C110.472 6.85091 110.521 6.8444 110.566 6.83789C110.612 6.83138 110.645 6.82487 110.664 6.81836C110.671 6.81836 110.69 6.81185 110.723 6.79883C110.762 6.78581 110.801 6.77279 110.84 6.75977C110.885 6.74674 110.924 6.73372 110.957 6.7207C110.99 6.70768 111.009 6.70117 111.016 6.70117H111.123C111.273 6.70117 111.393 6.74674 111.484 6.83789C111.582 6.92904 111.67 7.02995 111.748 7.14062C111.794 7.19922 111.82 7.28385 111.826 7.39453C111.839 7.4987 111.862 7.57682 111.895 7.62891C111.895 7.64844 111.904 7.66797 111.924 7.6875L111.963 7.72656C111.963 8.03906 111.917 8.31901 111.826 8.56641C111.742 8.80729 111.595 9.0026 111.387 9.15234C111.328 9.16536 111.26 9.17839 111.182 9.19141C111.104 9.19792 111.038 9.20117 110.986 9.20117C110.85 9.20117 110.749 9.19466 110.684 9.18164C110.618 9.16211 110.57 9.13607 110.537 9.10352C110.505 9.07096 110.475 9.02865 110.449 8.97656C110.43 8.92448 110.394 8.86263 110.342 8.79102C110.296 8.73242 110.241 8.68685 110.176 8.6543C110.117 8.61523 110.059 8.58919 110 8.57617C109.941 8.55664 109.886 8.54362 109.834 8.53711C109.788 8.5306 109.759 8.52734 109.746 8.52734L109.326 8.45898L108.975 8.55664L108.857 8.71289C108.825 8.7194 108.779 8.75195 108.721 8.81055C108.662 8.86263 108.604 8.92448 108.545 8.99609C108.493 9.0612 108.447 9.13281 108.408 9.21094C108.369 9.28255 108.35 9.34115 108.35 9.38672L108.301 10.0898L108.35 10.3633V10.8711C108.35 10.8841 108.353 10.9232 108.359 10.9883C108.372 11.0469 108.385 11.0924 108.398 11.125L108.33 12.0039L108.398 12.3359C108.398 12.3815 108.385 12.4271 108.359 12.4727C108.34 12.5182 108.33 12.5768 108.33 12.6484L108.398 12.9805L108.33 13.3418C108.33 13.3483 108.33 13.3581 108.33 13.3711C108.33 13.3841 108.337 13.3906 108.35 13.3906C108.356 13.4297 108.376 13.485 108.408 13.5566C108.447 13.6283 108.486 13.7031 108.525 13.7812C108.571 13.8594 108.61 13.9342 108.643 14.0059C108.682 14.071 108.708 14.1198 108.721 14.1523C108.721 14.1589 108.727 14.1719 108.74 14.1914C108.753 14.2109 108.77 14.2207 108.789 14.2207C108.848 14.2533 108.903 14.2956 108.955 14.3477C109.014 14.3997 109.082 14.4388 109.16 14.4648C109.206 14.4844 109.264 14.5039 109.336 14.5234C109.408 14.5365 109.482 14.5527 109.561 14.5723C109.645 14.5918 109.727 14.6146 109.805 14.6406C109.889 14.6667 109.967 14.6992 110.039 14.7383C110.078 14.7904 110.114 14.8522 110.146 14.9238C110.186 14.9954 110.205 15.0736 110.205 15.1582C110.205 15.2298 110.192 15.2819 110.166 15.3145C110.146 15.347 110.114 15.3796 110.068 15.4121C110.029 15.4382 109.964 15.4512 109.873 15.4512L109.561 15.4805C109.45 15.4935 109.349 15.5 109.258 15.5C109.173 15.5 109.102 15.5 109.043 15.5C108.991 15.5 108.932 15.4935 108.867 15.4805C108.809 15.4609 108.743 15.4512 108.672 15.4512C108.49 15.4512 108.317 15.474 108.154 15.5195C107.992 15.5716 107.826 15.5977 107.656 15.5977L107.217 15.4512L106.592 15.5977H106.426L106.289 15.5C106.276 15.5 106.24 15.4967 106.182 15.4902C106.123 15.4772 106.038 15.4642 105.928 15.4512C105.902 15.4512 105.876 15.4382 105.85 15.4121C105.83 15.4056 105.798 15.3958 105.752 15.3828C105.713 15.3698 105.648 15.3405 105.557 15.2949C105.505 15.2233 105.479 15.1549 105.479 15.0898V15.0605V14.9043Z" fill="#D21E6A"/>
</svg>
